<svg xmlns="http://www.w3.org/2000/svg" xmlns:xlink="http://www.w3.org/1999/xlink" width="500" zoomAndPan="magnify" viewBox="0 0 375 374.999991" height="500" preserveAspectRatio="xMidYMid meet" version="1.0"><defs><g/></defs><g fill="#ff5757" fill-opacity="1"><g transform="translate(184.229778, 197.403207)"><g><path d="M 25.460938 -36.011719 C 26.328125 -36.230469 27.054688 -36.652344 27.769531 -37.1875 C 28.429688 -37.714844 28.960938 -38.394531 29.414062 -39.234375 C 30.222656 -40.839844 30.195312 -42.84375 29.457031 -45.207031 C 28.648438 -44.550781 27.84375 -44.285156 27.167969 -44.3125 C 26.441406 -44.332031 25.859375 -44.539062 25.40625 -45.042969 C 24.90625 -45.484375 24.546875 -46.109375 24.34375 -46.863281 C 24.136719 -47.621094 24.097656 -48.398438 24.210938 -49.304688 C 24.5 -51.011719 25.175781 -52.324219 26.296875 -53.1875 C 27.417969 -54.050781 28.683594 -54.65625 30.097656 -54.941406 C 31.511719 -55.226562 32.996094 -55.410156 34.445312 -55.421875 C 35.847656 -55.371094 37.253906 -55.265625 38.613281 -55.101562 C 39.976562 -54.933594 41.285156 -54.703125 42.550781 -54.414062 C 43.125 -54.261719 43.703125 -54.109375 44.226562 -53.953125 C 44.746094 -53.792969 45.261719 -53.6875 45.785156 -53.53125 C 46.25 -53.363281 46.777344 -53.152344 47.300781 -52.992188 C 47.773438 -52.773438 48.359375 -52.566406 49.003906 -52.308594 C 49.59375 -52.046875 50.238281 -51.792969 50.882812 -51.539062 C 51.53125 -51.28125 52.167969 -51.082031 52.863281 -50.890625 C 54.199219 -50.441406 55.582031 -50.109375 57.003906 -49.894531 C 58.367188 -49.671875 59.707031 -49.671875 60.902344 -49.929688 C 61.894531 -50.050781 62.800781 -50.386719 63.515625 -50.921875 C 64.238281 -51.402344 64.835938 -51.976562 65.304688 -52.703125 C 65.722656 -53.371094 66.027344 -54.078125 66.152344 -54.875 C 66.285156 -55.617188 66.296875 -56.398438 66.203125 -57.167969 C 66.066406 -57.820312 65.820312 -58.460938 65.464844 -59.085938 C 65.109375 -59.710938 64.640625 -60.324219 64.074219 -60.867188 C 63.457031 -61.347656 62.78125 -61.824219 61.953125 -62.222656 C 61.128906 -62.566406 60.257812 -62.851562 59.234375 -63.003906 C 59.394531 -61.683594 59.410156 -60.679688 59.171875 -59.871094 C 58.9375 -59.0625 58.574219 -58.402344 58.070312 -57.949219 C 57.578125 -57.441406 56.949219 -57.085938 56.195312 -56.878906 C 55.4375 -56.675781 54.675781 -56.527344 53.894531 -56.539062 C 52.789062 -56.460938 51.730469 -56.441406 50.714844 -56.539062 C 49.648438 -56.574219 48.632812 -56.671875 47.664062 -56.832031 L 41.820312 -57.617188 C 39.898438 -57.824219 37.933594 -57.917969 35.980469 -57.898438 C 34.03125 -57.882812 31.941406 -57.625 29.675781 -57.007812 C 28.164062 -56.597656 26.671875 -56.023438 25.195312 -55.339844 C 23.714844 -54.65625 22.417969 -53.878906 21.242188 -53.011719 C 20.015625 -52.078125 18.976562 -51 18.109375 -49.890625 C 17.25 -48.722656 16.734375 -47.488281 16.457031 -46.113281 C 16.1875 -44.683594 16.199219 -43.234375 16.539062 -41.828125 C 16.828125 -40.414062 17.421875 -39.203125 18.21875 -38.183594 C 19.019531 -37.113281 20.007812 -36.339844 21.234375 -35.878906 C 22.410156 -35.410156 23.851562 -35.476562 25.460938 -36.011719 Z M 10.53125 -1.46875 C 12.304688 -1.574219 13.953125 -2.226562 15.488281 -3.363281 C 17.019531 -4.5 18.511719 -5.96875 19.964844 -7.765625 C 21.425781 -9.507812 22.738281 -11.511719 24.019531 -13.792969 C 25.308594 -16.015625 26.582031 -18.347656 27.84375 -20.792969 C 28.515625 -22.101562 29.273438 -23.648438 30.128906 -25.316406 C 30.984375 -26.984375 31.886719 -28.714844 32.886719 -30.566406 L 34.339844 -33.257812 C 35.480469 -35.292969 36.679688 -37.339844 37.878906 -39.386719 C 39.074219 -41.429688 40.246094 -43.25 41.4375 -44.902344 C 42.578125 -46.496094 43.644531 -47.796875 44.746094 -48.828125 C 45.792969 -49.847656 46.71875 -50.464844 47.585938 -50.683594 C 46.53125 -51.558594 45.390625 -51.75 44.222656 -51.273438 C 42.996094 -50.785156 41.664062 -49.839844 40.15625 -48.484375 C 39.710938 -48.039062 39.132812 -47.296875 38.367188 -46.253906 C 37.613281 -45.15625 36.703125 -43.925781 35.765625 -42.472656 C 34.773438 -41.011719 33.6875 -39.425781 32.558594 -37.722656 C 31.429688 -36.023438 30.246094 -34.3125 29.0625 -32.605469 L 27.113281 -29.851562 C 26.246094 -28.742188 25.433594 -27.636719 24.609375 -26.640625 C 23.785156 -25.648438 23.003906 -24.714844 22.261719 -23.953125 C 21.230469 -22.820312 20.238281 -21.804688 19.234375 -20.902344 C 18.238281 -19.941406 17.222656 -19.144531 16.246094 -18.46875 C 15.21875 -17.726562 14.285156 -17.164062 13.382812 -16.773438 C 12.484375 -16.382812 11.671875 -16.171875 10.890625 -16.1875 C 10.113281 -16.148438 9.367188 -16.335938 8.707031 -16.699219 C 8.046875 -17.0625 7.519531 -17.722656 7.121094 -18.679688 C 6.679688 -19.574219 6.417969 -20.769531 6.289062 -22.257812 C 6.167969 -23.695312 6.273438 -25.550781 6.613281 -27.769531 C 5.136719 -27.082031 3.851562 -26.199219 2.875 -25.074219 C 1.839844 -23.941406 0.988281 -22.71875 0.320312 -21.355469 C -0.398438 -19.925781 -0.886719 -18.472656 -1.144531 -16.933594 C -1.449219 -15.332031 -1.539062 -13.816406 -1.472656 -12.371094 C -1.390625 -10.820312 -1.09375 -9.296875 -0.585938 -7.90625 C -0.078125 -6.519531 0.625 -5.324219 1.640625 -4.332031 C 2.609375 -3.28125 3.824219 -2.480469 5.277344 -1.992188 C 6.742188 -1.445312 8.492188 -1.273438 10.53125 -1.46875 Z M 10.53125 -1.46875 "/></g></g></g><g fill="#ff5757" fill-opacity="1"><g transform="translate(219.731067, 193.018498)"><g><path d="M 6.214844 -21.078125 L -4.691406 0.410156 L 2.890625 -0.523438 L 11.761719 -19.53125 C 12.378906 -20.835938 13.28125 -22.117188 14.402344 -23.429688 C 14.699219 -23.746094 15.09375 -24.183594 15.636719 -24.753906 C 16.1875 -25.265625 16.785156 -25.84375 17.5 -26.378906 C 18.160156 -26.90625 18.832031 -27.324219 19.507812 -27.742188 C 20.179688 -28.160156 20.820312 -28.40625 21.480469 -28.488281 C 22.089844 -28.507812 22.621094 -28.292969 23.003906 -27.894531 C 23.394531 -27.441406 23.652344 -26.691406 23.789062 -25.59375 C 23.859375 -25.042969 23.691406 -24.578125 23.363281 -24.089844 C 23.03125 -23.601562 22.625 -23.273438 22.101562 -22.984375 C 21.582031 -22.699219 20.996094 -22.457031 20.335938 -22.375 C 19.675781 -22.292969 19.050781 -22.386719 18.460938 -22.648438 C 18.242188 -21.726562 18.164062 -20.992188 18.234375 -20.441406 C 18.300781 -19.894531 18.527344 -19.417969 18.84375 -19.121094 C 19.109375 -18.765625 19.472656 -18.53125 19.878906 -18.414062 C 20.28125 -18.296875 20.679688 -18.234375 21.121094 -18.289062 C 22.125 -18.300781 22.984375 -18.574219 23.792969 -19.230469 C 24.550781 -19.882812 25.175781 -20.6875 25.722656 -21.703125 C 26.21875 -22.65625 26.589844 -23.707031 26.785156 -24.847656 C 26.976562 -25.988281 27.011719 -27.050781 26.882812 -28.09375 C 26.707031 -29.078125 26.371094 -29.984375 25.886719 -30.761719 C 25.34375 -31.53125 24.609375 -32.054688 23.691406 -32.277344 C 22.777344 -32.441406 21.789062 -32.320312 20.832031 -31.921875 C 19.882812 -31.472656 18.941406 -30.964844 18.074219 -30.300781 C 17.160156 -29.574219 16.308594 -28.796875 15.511719 -28.03125 C 14.71875 -27.207031 14.078125 -26.511719 13.535156 -25.945312 C 13.652344 -27.242188 13.519531 -28.339844 13.183594 -29.25 C 12.855469 -30.101562 12.230469 -30.636719 11.371094 -30.8125 C 10.691406 -30.894531 9.875 -30.738281 8.917969 -30.339844 C 7.964844 -29.941406 6.824219 -29.246094 5.550781 -28.25 C 6.078125 -27.589844 6.425781 -27.019531 6.714844 -26.496094 C 7.003906 -25.972656 7.125 -25.433594 7.195312 -24.882812 C 7.207031 -24.324219 7.117188 -23.699219 6.964844 -23.125 C 6.765625 -22.484375 6.515625 -21.785156 6.214844 -21.078125 Z M 5.488281 -28.296875 L 5.398438 -28.121094 L 5.550781 -28.25 Z M 5.488281 -28.296875 "/></g></g></g><g fill="#ff5757" fill-opacity="1"><g transform="translate(243.746472, 190.052392)"><g><path d="M 17.472656 -2.660156 L 17.273438 -2.46875 C 18.8125 -2.65625 20.296875 -3.289062 21.773438 -4.417969 C 23.203125 -5.488281 24.601562 -6.832031 25.859375 -8.382812 C 27.070312 -9.871094 28.152344 -11.511719 29.171875 -13.199219 C 30.191406 -14.886719 30.996094 -16.496094 31.601562 -17.910156 C 31.507812 -17.785156 31.402344 -17.714844 31.25 -17.585938 C 31.101562 -17.457031 30.957031 -17.269531 30.757812 -17.078125 C 30.316406 -16.578125 29.820312 -16.070312 29.269531 -15.554688 C 28.726562 -14.988281 28.128906 -14.410156 27.476562 -13.828125 C 26.078125 -12.484375 24.917969 -11.503906 23.871094 -10.925781 C 23.355469 -10.585938 22.921875 -10.476562 22.632812 -10.550781 C 22.347656 -10.628906 22.25 -10.949219 22.347656 -11.519531 C 22.390625 -12.082031 22.777344 -13.023438 23.410156 -14.21875 L 33.363281 -33.472656 L 25.613281 -32.515625 L 22.71875 -27.023438 C 22.585938 -28.121094 22.3125 -28.980469 21.832031 -29.703125 C 21.359375 -30.371094 20.796875 -30.859375 20.082031 -31.21875 C 19.320312 -31.511719 18.46875 -31.632812 17.574219 -31.632812 C 16.691406 -31.578125 15.714844 -31.347656 14.75 -31.003906 C 14.007812 -30.691406 13.171875 -30.25 12.304688 -29.585938 C 11.4375 -28.921875 10.578125 -28.203125 9.683594 -27.308594 C 8.789062 -26.417969 7.855469 -25.410156 6.933594 -24.292969 C 6.011719 -23.171875 5.144531 -22.0625 4.289062 -20.839844 C 3.242188 -19.371094 2.308594 -17.917969 1.488281 -16.421875 C 0.621094 -14.863281 -0.0898438 -13.378906 -0.691406 -11.910156 C -1.117188 -10.855469 -1.46875 -9.640625 -1.636719 -8.28125 C -1.804688 -6.917969 -1.820312 -5.691406 -1.566406 -4.550781 C -1.363281 -3.347656 -0.910156 -2.398438 -0.257812 -1.640625 C 0.394531 -0.886719 1.382812 -0.5625 2.753906 -0.730469 C 4.625 -0.960938 6.554688 -1.589844 8.425781 -2.714844 C 9.3125 -3.214844 10.128906 -3.816406 10.886719 -4.46875 C 11.644531 -5.121094 12.277344 -5.867188 12.738281 -6.652344 C 12.785156 -5.375 13.242188 -4.371094 14.121094 -3.585938 C 14.945312 -2.792969 16.042969 -2.484375 17.472656 -2.660156 Z M 7.429688 -8.507812 C 6.902344 -8.71875 6.519531 -9.117188 6.273438 -9.757812 C 6.027344 -10.398438 6.035156 -11.234375 6.234375 -12.320312 C 6.386719 -13.34375 6.792969 -14.566406 7.496094 -16.101562 C 8.207031 -17.585938 9.21875 -19.328125 10.535156 -21.332031 C 11.097656 -22.183594 11.664062 -23.035156 12.335938 -23.898438 C 12.957031 -24.757812 13.644531 -25.511719 14.332031 -26.265625 C 14.972656 -26.957031 15.679688 -27.546875 16.464844 -27.980469 C 17.191406 -28.40625 18.003906 -28.617188 18.882812 -28.726562 C 19.386719 -28.730469 19.789062 -28.613281 20.097656 -28.375 C 20.359375 -28.070312 20.570312 -27.707031 20.742188 -27.226562 C 20.859375 -26.738281 20.925781 -26.1875 20.898438 -25.515625 C 20.871094 -24.839844 20.839844 -24.167969 20.710938 -23.425781 L 20.765625 -23.433594 L 16.027344 -14.8125 C 15.667969 -14.097656 15.152344 -13.308594 14.585938 -12.460938 C 13.96875 -11.601562 13.285156 -10.792969 12.535156 -10.085938 C 11.738281 -9.316406 10.914062 -8.769531 10.0625 -8.441406 C 9.160156 -8.050781 8.269531 -8.050781 7.429688 -8.507812 Z M 7.429688 -8.507812 "/></g></g></g><g fill="#ff5757" fill-opacity="1"><g transform="translate(272.158389, 186.54328)"><g><path d="M 2.625 -0.4375 C 3.984375 -0.269531 5.304688 -0.433594 6.636719 -0.929688 C 7.96875 -1.429688 9.28125 -2.09375 10.5625 -3.035156 C 11.792969 -3.910156 12.949219 -4.945312 14.089844 -6.09375 C 15.230469 -7.238281 16.304688 -8.488281 17.253906 -9.832031 C 18.15625 -11.113281 18.996094 -12.445312 19.78125 -13.769531 C 20.511719 -15.089844 21.144531 -16.28125 21.667969 -17.464844 C 19.480469 -14.402344 17.410156 -12.195312 15.566406 -10.851562 C 13.722656 -9.507812 12.128906 -8.863281 10.839844 -8.925781 C 9.5 -8.929688 8.632812 -9.605469 8.128906 -10.992188 C 7.628906 -12.324219 7.671875 -14.226562 8.265625 -16.644531 C 8.832031 -18.835938 9.550781 -20.710938 10.363281 -22.261719 C 11.183594 -23.757812 12.035156 -24.976562 12.917969 -25.980469 C 13.75 -26.917969 14.5625 -27.578125 15.398438 -28.015625 C 16.238281 -28.453125 16.933594 -28.707031 17.53125 -28.835938 C 17.96875 -28.890625 18.367188 -28.828125 18.675781 -28.589844 C 18.929688 -28.339844 19.082031 -28.023438 19.082031 -27.578125 C 19.023438 -27.125 18.875 -26.546875 18.5625 -25.894531 C 18.253906 -25.242188 17.722656 -24.5625 17.027344 -23.863281 C 16.78125 -23.609375 16.472656 -23.40625 16.167969 -23.144531 C 15.960938 -23.007812 15.761719 -22.816406 15.558594 -22.679688 C 15.351562 -22.542969 15.207031 -22.355469 15.054688 -22.226562 C 14.710938 -21.847656 14.476562 -21.484375 14.351562 -21.136719 C 14.171875 -20.777344 14.277344 -20.398438 14.605469 -19.996094 L 14.5 -19.925781 C 14.777344 -19.511719 15.1875 -19.339844 15.855469 -19.367188 C 16.519531 -19.394531 17.195312 -19.8125 17.984375 -20.636719 C 18.679688 -21.335938 19.238281 -22.242188 19.714844 -23.359375 C 20.195312 -24.421875 20.507812 -25.523438 20.699219 -26.660156 C 20.867188 -28.023438 20.78125 -29.183594 20.328125 -30.132812 C 19.875 -31.078125 18.984375 -31.527344 17.707031 -31.480469 C 15.832031 -31.304688 14.007812 -30.691406 12.347656 -29.703125 C 10.683594 -28.714844 9.101562 -27.515625 7.710938 -26.117188 C 6.273438 -24.65625 5.015625 -23.105469 3.878906 -21.460938 C 2.75 -19.757812 1.882812 -18.199219 1.164062 -16.773438 C 0.132812 -14.746094 -0.683594 -12.75 -1.21875 -10.785156 C -1.8125 -8.816406 -1.988281 -7.0625 -1.742188 -5.53125 C -1.527344 -3.773438 -0.980469 -2.5 -0.210938 -1.703125 C 0.558594 -0.90625 1.5 -0.519531 2.625 -0.4375 Z M 2.625 -0.4375 "/></g></g></g><g fill="#ff5757" fill-opacity="1"><g transform="translate(291.832236, 184.113394)"><g><path d="M -0.460938 -12.332031 L -7.253906 0.449219 L 1.042969 -0.574219 L 7.058594 -11.976562 C 7.683594 -8.707031 8.589844 -6.363281 9.71875 -4.882812 C 10.796875 -3.398438 12.074219 -2.550781 13.4375 -2.328125 C 14.757812 -2.046875 16.171875 -2.332031 17.628906 -3.183594 C 19.085938 -4.03125 20.566406 -5.164062 22.003906 -6.625 C 23.394531 -8.023438 24.699219 -9.636719 25.925781 -11.460938 C 27.152344 -13.285156 28.210938 -15.089844 29.050781 -16.867188 C 28.605469 -16.421875 28.214844 -15.984375 27.8125 -15.597656 C 27.421875 -15.160156 27.03125 -14.722656 26.691406 -14.289062 C 26.019531 -13.425781 25.28125 -12.609375 24.46875 -11.949219 C 23.664062 -11.238281 22.777344 -10.738281 21.804688 -10.503906 C 20.835938 -10.21875 19.597656 -10.289062 18.203125 -10.730469 C 17.105469 -11.039062 16.097656 -11.53125 15.171875 -12.253906 C 14.25 -12.921875 13.484375 -13.71875 12.8125 -14.640625 C 13.304688 -14.699219 13.953125 -14.890625 14.695312 -15.207031 C 16.125 -15.828125 17.800781 -16.707031 19.65625 -17.941406 C 20.539062 -18.496094 21.609375 -19.296875 22.9375 -20.296875 C 24.210938 -21.292969 25.304688 -22.375 26.273438 -23.554688 C 27.195312 -24.675781 27.792969 -25.695312 28.125 -26.628906 C 28.457031 -27.5625 28.472656 -28.347656 28.226562 -28.984375 C 27.925781 -29.617188 27.476562 -30.066406 26.769531 -30.367188 C 26.0625 -30.671875 25.210938 -30.789062 24.167969 -30.660156 C 23.125 -30.53125 21.949219 -30.109375 20.582031 -29.4375 C 18.792969 -28.546875 17.152344 -27.394531 15.652344 -25.980469 C 14.152344 -24.570312 12.816406 -23.175781 11.703125 -21.8125 L 11.652344 -21.75 L 16.28125 -30.355469 C 16.632812 -30.679688 17.039062 -31.007812 17.492188 -31.398438 C 17.945312 -31.789062 18.457031 -32.1875 18.957031 -32.640625 C 19.410156 -33.03125 19.914062 -33.484375 20.414062 -33.9375 C 20.917969 -34.390625 21.476562 -34.847656 22.023438 -35.363281 C 23.078125 -36.328125 24.179688 -37.359375 25.273438 -38.441406 C 26.367188 -39.527344 27.34375 -40.652344 28.304688 -41.886719 C 29.222656 -43.058594 30.027344 -44.21875 30.769531 -45.425781 C 31.460938 -46.628906 31.933594 -47.746094 32.246094 -48.84375 C 32.507812 -49.882812 32.550781 -50.890625 32.386719 -51.765625 C 32.167969 -52.628906 31.683594 -53.40625 30.816406 -54.082031 C 30.214844 -54.453125 29.507812 -54.757812 28.710938 -54.882812 C 27.914062 -55.003906 27.027344 -54.953125 26.105469 -54.726562 C 25.136719 -54.441406 24.242188 -53.996094 23.324219 -53.324219 C 22.402344 -52.652344 21.617188 -51.773438 20.914062 -50.683594 C 19.605469 -48.625 18.296875 -46.5625 17.101562 -44.519531 C 15.902344 -42.472656 14.65625 -40.367188 13.472656 -38.210938 C 11.039062 -33.949219 8.671875 -29.640625 6.355469 -25.335938 C 4.050781 -20.976562 1.796875 -16.625 -0.460938 -12.332031 Z M 17.207031 -33.707031 L 27.308594 -50.410156 C 27.585938 -50.890625 27.988281 -51.222656 28.417969 -51.386719 C 28.847656 -51.496094 29.1875 -51.480469 29.542969 -51.300781 C 29.789062 -51.109375 30.050781 -50.804688 30.214844 -50.378906 C 30.378906 -49.953125 30.390625 -49.398438 30.308594 -48.71875 C 30.167969 -48.03125 29.824219 -47.207031 29.378906 -46.316406 C 28.9375 -45.367188 28.226562 -44.332031 27.304688 -43.214844 C 26.535156 -42.226562 25.648438 -41.277344 24.710938 -40.269531 C 23.722656 -39.253906 22.777344 -38.300781 21.828125 -37.402344 C 20.933594 -36.511719 20.074219 -35.792969 19.265625 -35.132812 C 18.453125 -34.476562 17.730469 -33.996094 17.207031 -33.707031 Z M 7.5625 -13.320312 L 9.867188 -17.679688 L 12.25 -20.09375 C 12.695312 -20.539062 13.144531 -20.984375 13.640625 -21.492188 C 14.140625 -21.945312 14.589844 -22.390625 15.082031 -22.898438 C 16.03125 -23.796875 16.945312 -24.523438 17.828125 -25.078125 C 18.707031 -25.632812 19.402344 -25.886719 19.867188 -25.722656 L 19.875 -25.667969 C 20.636719 -25.371094 20.972656 -24.910156 20.820312 -24.332031 C 20.675781 -23.703125 20.207031 -22.972656 19.519531 -22.21875 C 18.785156 -21.402344 17.882812 -20.566406 16.761719 -19.703125 C 15.648438 -18.785156 14.519531 -17.976562 13.335938 -17.160156 C 12.105469 -16.28125 11.027344 -15.535156 9.996094 -14.847656 C 8.964844 -14.164062 8.132812 -13.671875 7.5625 -13.320312 Z M 7.5625 -13.320312 "/></g></g></g><g fill="#ff5757" fill-opacity="1"><g transform="translate(316.452162, 181.072625)"><g><path d="M 3.757812 -0.742188 C 5.117188 -0.578125 6.4375 -0.738281 7.769531 -1.238281 C 9.105469 -1.738281 10.417969 -2.402344 11.695312 -3.339844 C 12.925781 -4.21875 14.082031 -5.253906 15.222656 -6.398438 C 16.367188 -7.546875 17.4375 -8.792969 18.390625 -10.140625 C 19.289062 -11.421875 20.128906 -12.753906 20.914062 -14.078125 C 21.644531 -15.394531 22.28125 -16.589844 22.804688 -17.769531 C 20.613281 -14.710938 18.542969 -12.5 16.699219 -11.15625 C 14.859375 -9.8125 13.261719 -9.171875 11.972656 -9.234375 C 10.632812 -9.238281 9.769531 -9.910156 9.261719 -11.300781 C 8.761719 -12.632812 8.804688 -14.535156 9.402344 -16.953125 C 9.554688 -17.527344 9.703125 -18.105469 9.855469 -18.683594 C 10.015625 -19.203125 10.230469 -19.734375 10.441406 -20.261719 C 10.359375 -19.136719 10.617188 -18.386719 11.167969 -18.007812 C 11.660156 -17.621094 12.355469 -17.429688 13.179688 -17.53125 L 13.035156 -17.34375 C 14.585938 -17.425781 16.070312 -18.054688 17.386719 -19.164062 C 18.707031 -20.222656 19.71875 -21.519531 20.539062 -23.015625 C 20.855469 -23.613281 21.144531 -24.429688 21.460938 -25.472656 C 21.777344 -26.515625 21.9375 -27.484375 21.925781 -28.488281 C 21.921875 -29.433594 21.652344 -30.238281 21.234375 -30.914062 C 20.769531 -31.523438 19.953125 -31.816406 18.839844 -31.789062 C 16.964844 -31.613281 15.144531 -30.996094 13.480469 -30.011719 C 11.816406 -29.023438 10.234375 -27.824219 8.84375 -26.425781 C 7.40625 -24.964844 6.148438 -23.414062 5.011719 -21.765625 C 3.882812 -20.066406 3.015625 -18.507812 2.296875 -17.078125 C 1.265625 -15.054688 0.453125 -13.058594 -0.0859375 -11.09375 C -0.679688 -9.121094 -0.855469 -7.371094 -0.609375 -5.839844 C -0.390625 -4.082031 0.15625 -2.808594 0.921875 -2.011719 C 1.691406 -1.214844 2.632812 -0.828125 3.757812 -0.742188 Z M 12.511719 -20.238281 C 11.796875 -20.148438 11.363281 -20.488281 11.226562 -21.140625 C 11.035156 -21.785156 11.375 -22.664062 12.171875 -23.878906 C 13.238281 -25.628906 14.367188 -26.882812 15.558594 -27.644531 C 16.699219 -28.34375 17.703125 -28.800781 18.511719 -29.015625 L 18.566406 -29.019531 C 19.777344 -29.171875 20.277344 -28.730469 20.078125 -27.644531 C 19.925781 -27.066406 19.664062 -26.476562 19.296875 -25.820312 C 18.933594 -25.160156 18.457031 -24.488281 17.976562 -23.871094 C 17.011719 -22.636719 16.007812 -21.730469 15.019531 -21.160156 C 13.980469 -20.53125 13.183594 -20.210938 12.511719 -20.238281 Z M 12.511719 -20.238281 "/></g></g></g><g fill="#ff5757" fill-opacity="1"><g transform="translate(336.400792, 178.608801)"><g><path d="M 6.214844 -21.078125 L -4.691406 0.410156 L 2.890625 -0.523438 L 11.761719 -19.53125 C 12.378906 -20.835938 13.28125 -22.117188 14.402344 -23.429688 C 14.699219 -23.746094 15.09375 -24.183594 15.636719 -24.753906 C 16.1875 -25.265625 16.785156 -25.84375 17.5 -26.378906 C 18.160156 -26.90625 18.832031 -27.324219 19.507812 -27.742188 C 20.179688 -28.160156 20.820312 -28.40625 21.480469 -28.488281 C 22.089844 -28.507812 22.621094 -28.292969 23.003906 -27.894531 C 23.394531 -27.441406 23.652344 -26.691406 23.789062 -25.59375 C 23.859375 -25.042969 23.691406 -24.578125 23.363281 -24.089844 C 23.03125 -23.601562 22.625 -23.273438 22.101562 -22.984375 C 21.582031 -22.699219 20.996094 -22.457031 20.335938 -22.375 C 19.675781 -22.292969 19.050781 -22.386719 18.460938 -22.648438 C 18.242188 -21.726562 18.164062 -20.992188 18.234375 -20.441406 C 18.300781 -19.894531 18.527344 -19.417969 18.84375 -19.121094 C 19.109375 -18.765625 19.472656 -18.53125 19.878906 -18.414062 C 20.28125 -18.296875 20.679688 -18.234375 21.121094 -18.289062 C 22.125 -18.300781 22.984375 -18.574219 23.792969 -19.230469 C 24.550781 -19.882812 25.175781 -20.6875 25.722656 -21.703125 C 26.21875 -22.65625 26.589844 -23.707031 26.785156 -24.847656 C 26.976562 -25.988281 27.011719 -27.050781 26.882812 -28.09375 C 26.707031 -29.078125 26.371094 -29.984375 25.886719 -30.761719 C 25.34375 -31.53125 24.609375 -32.054688 23.691406 -32.277344 C 22.777344 -32.441406 21.789062 -32.320312 20.832031 -31.921875 C 19.882812 -31.472656 18.941406 -30.964844 18.074219 -30.300781 C 17.160156 -29.574219 16.308594 -28.796875 15.511719 -28.03125 C 14.71875 -27.207031 14.078125 -26.511719 13.535156 -25.945312 C 13.652344 -27.242188 13.519531 -28.339844 13.183594 -29.25 C 12.855469 -30.101562 12.230469 -30.636719 11.371094 -30.8125 C 10.691406 -30.894531 9.875 -30.738281 8.917969 -30.339844 C 7.964844 -29.941406 6.824219 -29.246094 5.550781 -28.25 C 6.078125 -27.589844 6.425781 -27.019531 6.714844 -26.496094 C 7.003906 -25.972656 7.125 -25.433594 7.195312 -24.882812 C 7.207031 -24.324219 7.117188 -23.699219 6.964844 -23.125 C 6.765625 -22.484375 6.515625 -21.785156 6.214844 -21.078125 Z M 5.488281 -28.296875 L 5.398438 -28.121094 L 5.550781 -28.25 Z M 5.488281 -28.296875 "/></g></g></g><g fill="#ffde59" fill-opacity="1"><g transform="translate(185.461242, 196.507162)"><g><path d="M 25.460938 -36.011719 C 26.328125 -36.230469 27.054688 -36.652344 27.769531 -37.1875 C 28.429688 -37.714844 28.960938 -38.394531 29.414062 -39.234375 C 30.222656 -40.839844 30.195312 -42.84375 29.457031 -45.207031 C 28.648438 -44.550781 27.84375 -44.285156 27.167969 -44.3125 C 26.441406 -44.332031 25.859375 -44.539062 25.40625 -45.042969 C 24.90625 -45.484375 24.546875 -46.109375 24.34375 -46.863281 C 24.136719 -47.621094 24.097656 -48.398438 24.210938 -49.304688 C 24.5 -51.011719 25.175781 -52.324219 26.296875 -53.1875 C 27.417969 -54.050781 28.683594 -54.65625 30.097656 -54.941406 C 31.511719 -55.226562 32.996094 -55.410156 34.445312 -55.421875 C 35.847656 -55.371094 37.253906 -55.265625 38.613281 -55.101562 C 39.976562 -54.933594 41.285156 -54.703125 42.550781 -54.414062 C 43.125 -54.261719 43.703125 -54.109375 44.226562 -53.953125 C 44.746094 -53.792969 45.261719 -53.6875 45.785156 -53.53125 C 46.25 -53.363281 46.777344 -53.152344 47.300781 -52.992188 C 47.773438 -52.773438 48.359375 -52.566406 49.003906 -52.308594 C 49.59375 -52.046875 50.238281 -51.792969 50.882812 -51.539062 C 51.53125 -51.28125 52.167969 -51.082031 52.863281 -50.890625 C 54.199219 -50.441406 55.582031 -50.109375 57.003906 -49.894531 C 58.367188 -49.671875 59.707031 -49.671875 60.902344 -49.929688 C 61.894531 -50.050781 62.800781 -50.386719 63.515625 -50.921875 C 64.238281 -51.402344 64.835938 -51.976562 65.304688 -52.703125 C 65.722656 -53.371094 66.027344 -54.078125 66.152344 -54.875 C 66.285156 -55.617188 66.296875 -56.398438 66.203125 -57.167969 C 66.066406 -57.820312 65.820312 -58.460938 65.464844 -59.085938 C 65.109375 -59.710938 64.640625 -60.324219 64.074219 -60.867188 C 63.457031 -61.347656 62.78125 -61.824219 61.953125 -62.222656 C 61.128906 -62.566406 60.257812 -62.851562 59.234375 -63.003906 C 59.394531 -61.683594 59.410156 -60.679688 59.171875 -59.871094 C 58.9375 -59.0625 58.574219 -58.402344 58.070312 -57.949219 C 57.578125 -57.441406 56.949219 -57.085938 56.195312 -56.878906 C 55.4375 -56.675781 54.675781 -56.527344 53.894531 -56.539062 C 52.789062 -56.460938 51.730469 -56.441406 50.714844 -56.539062 C 49.648438 -56.574219 48.632812 -56.671875 47.664062 -56.832031 L 41.820312 -57.617188 C 39.898438 -57.824219 37.933594 -57.917969 35.980469 -57.898438 C 34.03125 -57.882812 31.941406 -57.625 29.675781 -57.007812 C 28.164062 -56.597656 26.671875 -56.023438 25.195312 -55.339844 C 23.714844 -54.65625 22.417969 -53.878906 21.242188 -53.011719 C 20.015625 -52.078125 18.976562 -51 18.109375 -49.890625 C 17.25 -48.722656 16.734375 -47.488281 16.457031 -46.113281 C 16.1875 -44.683594 16.199219 -43.234375 16.539062 -41.828125 C 16.828125 -40.414062 17.421875 -39.203125 18.21875 -38.183594 C 19.019531 -37.113281 20.007812 -36.339844 21.234375 -35.878906 C 22.410156 -35.410156 23.851562 -35.476562 25.460938 -36.011719 Z M 10.53125 -1.46875 C 12.304688 -1.574219 13.953125 -2.226562 15.488281 -3.363281 C 17.019531 -4.5 18.511719 -5.96875 19.964844 -7.765625 C 21.425781 -9.507812 22.738281 -11.511719 24.019531 -13.792969 C 25.308594 -16.015625 26.582031 -18.347656 27.84375 -20.792969 C 28.515625 -22.101562 29.273438 -23.648438 30.128906 -25.316406 C 30.984375 -26.984375 31.886719 -28.714844 32.886719 -30.566406 L 34.339844 -33.257812 C 35.480469 -35.292969 36.679688 -37.339844 37.878906 -39.386719 C 39.074219 -41.429688 40.246094 -43.25 41.4375 -44.902344 C 42.578125 -46.496094 43.644531 -47.796875 44.746094 -48.828125 C 45.792969 -49.847656 46.71875 -50.464844 47.585938 -50.683594 C 46.53125 -51.558594 45.390625 -51.75 44.222656 -51.273438 C 42.996094 -50.785156 41.664062 -49.839844 40.15625 -48.484375 C 39.710938 -48.039062 39.132812 -47.296875 38.367188 -46.253906 C 37.613281 -45.15625 36.703125 -43.925781 35.765625 -42.472656 C 34.773438 -41.011719 33.6875 -39.425781 32.558594 -37.722656 C 31.429688 -36.023438 30.246094 -34.3125 29.0625 -32.605469 L 27.113281 -29.851562 C 26.246094 -28.742188 25.433594 -27.636719 24.609375 -26.640625 C 23.785156 -25.648438 23.003906 -24.714844 22.261719 -23.953125 C 21.230469 -22.820312 20.238281 -21.804688 19.234375 -20.902344 C 18.238281 -19.941406 17.222656 -19.144531 16.246094 -18.46875 C 15.21875 -17.726562 14.285156 -17.164062 13.382812 -16.773438 C 12.484375 -16.382812 11.671875 -16.171875 10.890625 -16.1875 C 10.113281 -16.148438 9.367188 -16.335938 8.707031 -16.699219 C 8.046875 -17.0625 7.519531 -17.722656 7.121094 -18.679688 C 6.679688 -19.574219 6.417969 -20.769531 6.289062 -22.257812 C 6.167969 -23.695312 6.273438 -25.550781 6.613281 -27.769531 C 5.136719 -27.082031 3.851562 -26.199219 2.875 -25.074219 C 1.839844 -23.941406 0.988281 -22.71875 0.320312 -21.355469 C -0.398438 -19.925781 -0.886719 -18.472656 -1.144531 -16.933594 C -1.449219 -15.332031 -1.539062 -13.816406 -1.472656 -12.371094 C -1.390625 -10.820312 -1.09375 -9.296875 -0.585938 -7.90625 C -0.078125 -6.519531 0.625 -5.324219 1.640625 -4.332031 C 2.609375 -3.28125 3.824219 -2.480469 5.277344 -1.992188 C 6.742188 -1.445312 8.492188 -1.273438 10.53125 -1.46875 Z M 10.53125 -1.46875 "/></g></g></g><g fill="#ffde59" fill-opacity="1"><g transform="translate(220.962531, 192.122453)"><g><path d="M 6.214844 -21.078125 L -4.691406 0.410156 L 2.890625 -0.523438 L 11.761719 -19.53125 C 12.378906 -20.835938 13.28125 -22.117188 14.402344 -23.429688 C 14.699219 -23.746094 15.09375 -24.183594 15.636719 -24.753906 C 16.1875 -25.265625 16.785156 -25.84375 17.5 -26.378906 C 18.160156 -26.90625 18.832031 -27.324219 19.507812 -27.742188 C 20.179688 -28.160156 20.820312 -28.40625 21.480469 -28.488281 C 22.089844 -28.507812 22.621094 -28.292969 23.003906 -27.894531 C 23.394531 -27.441406 23.652344 -26.691406 23.789062 -25.59375 C 23.859375 -25.042969 23.691406 -24.578125 23.363281 -24.089844 C 23.03125 -23.601562 22.625 -23.273438 22.101562 -22.984375 C 21.582031 -22.699219 20.996094 -22.457031 20.335938 -22.375 C 19.675781 -22.292969 19.050781 -22.386719 18.460938 -22.648438 C 18.242188 -21.726562 18.164062 -20.992188 18.234375 -20.441406 C 18.300781 -19.894531 18.527344 -19.417969 18.84375 -19.121094 C 19.109375 -18.765625 19.472656 -18.53125 19.878906 -18.414062 C 20.28125 -18.296875 20.679688 -18.234375 21.121094 -18.289062 C 22.125 -18.300781 22.984375 -18.574219 23.792969 -19.230469 C 24.550781 -19.882812 25.175781 -20.6875 25.722656 -21.703125 C 26.21875 -22.65625 26.589844 -23.707031 26.785156 -24.847656 C 26.976562 -25.988281 27.011719 -27.050781 26.882812 -28.09375 C 26.707031 -29.078125 26.371094 -29.984375 25.886719 -30.761719 C 25.34375 -31.53125 24.609375 -32.054688 23.691406 -32.277344 C 22.777344 -32.441406 21.789062 -32.320312 20.832031 -31.921875 C 19.882812 -31.472656 18.941406 -30.964844 18.074219 -30.300781 C 17.160156 -29.574219 16.308594 -28.796875 15.511719 -28.03125 C 14.71875 -27.207031 14.078125 -26.511719 13.535156 -25.945312 C 13.652344 -27.242188 13.519531 -28.339844 13.183594 -29.25 C 12.855469 -30.101562 12.230469 -30.636719 11.371094 -30.8125 C 10.691406 -30.894531 9.875 -30.738281 8.917969 -30.339844 C 7.964844 -29.941406 6.824219 -29.246094 5.550781 -28.25 C 6.078125 -27.589844 6.425781 -27.019531 6.714844 -26.496094 C 7.003906 -25.972656 7.125 -25.433594 7.195312 -24.882812 C 7.207031 -24.324219 7.117188 -23.699219 6.964844 -23.125 C 6.765625 -22.484375 6.515625 -21.785156 6.214844 -21.078125 Z M 5.488281 -28.296875 L 5.398438 -28.121094 L 5.550781 -28.25 Z M 5.488281 -28.296875 "/></g></g></g><g fill="#ffde59" fill-opacity="1"><g transform="translate(244.977936, 189.156348)"><g><path d="M 17.472656 -2.660156 L 17.273438 -2.46875 C 18.8125 -2.65625 20.296875 -3.289062 21.773438 -4.417969 C 23.203125 -5.488281 24.601562 -6.832031 25.859375 -8.382812 C 27.070312 -9.871094 28.152344 -11.511719 29.171875 -13.199219 C 30.191406 -14.886719 30.996094 -16.496094 31.601562 -17.910156 C 31.507812 -17.785156 31.402344 -17.714844 31.25 -17.585938 C 31.101562 -17.457031 30.957031 -17.269531 30.757812 -17.078125 C 30.316406 -16.578125 29.820312 -16.070312 29.269531 -15.554688 C 28.726562 -14.988281 28.128906 -14.410156 27.476562 -13.828125 C 26.078125 -12.484375 24.917969 -11.503906 23.871094 -10.925781 C 23.355469 -10.585938 22.921875 -10.476562 22.632812 -10.550781 C 22.347656 -10.628906 22.25 -10.949219 22.347656 -11.519531 C 22.390625 -12.082031 22.777344 -13.023438 23.410156 -14.21875 L 33.363281 -33.472656 L 25.613281 -32.515625 L 22.71875 -27.023438 C 22.585938 -28.121094 22.3125 -28.980469 21.832031 -29.703125 C 21.359375 -30.371094 20.796875 -30.859375 20.082031 -31.21875 C 19.320312 -31.511719 18.46875 -31.632812 17.574219 -31.632812 C 16.691406 -31.578125 15.714844 -31.347656 14.75 -31.003906 C 14.007812 -30.691406 13.171875 -30.25 12.304688 -29.585938 C 11.4375 -28.921875 10.578125 -28.203125 9.683594 -27.308594 C 8.789062 -26.417969 7.855469 -25.410156 6.933594 -24.292969 C 6.011719 -23.171875 5.144531 -22.0625 4.289062 -20.839844 C 3.242188 -19.371094 2.308594 -17.917969 1.488281 -16.421875 C 0.621094 -14.863281 -0.0898438 -13.378906 -0.691406 -11.910156 C -1.117188 -10.855469 -1.46875 -9.640625 -1.636719 -8.28125 C -1.804688 -6.917969 -1.820312 -5.691406 -1.566406 -4.550781 C -1.363281 -3.347656 -0.910156 -2.398438 -0.257812 -1.640625 C 0.394531 -0.886719 1.382812 -0.5625 2.753906 -0.730469 C 4.625 -0.960938 6.554688 -1.589844 8.425781 -2.714844 C 9.3125 -3.214844 10.128906 -3.816406 10.886719 -4.46875 C 11.644531 -5.121094 12.277344 -5.867188 12.738281 -6.652344 C 12.785156 -5.375 13.242188 -4.371094 14.121094 -3.585938 C 14.945312 -2.792969 16.042969 -2.484375 17.472656 -2.660156 Z M 7.429688 -8.507812 C 6.902344 -8.71875 6.519531 -9.117188 6.273438 -9.757812 C 6.027344 -10.398438 6.035156 -11.234375 6.234375 -12.320312 C 6.386719 -13.34375 6.792969 -14.566406 7.496094 -16.101562 C 8.207031 -17.585938 9.21875 -19.328125 10.535156 -21.332031 C 11.097656 -22.183594 11.664062 -23.035156 12.335938 -23.898438 C 12.957031 -24.757812 13.644531 -25.511719 14.332031 -26.265625 C 14.972656 -26.957031 15.679688 -27.546875 16.464844 -27.980469 C 17.191406 -28.40625 18.003906 -28.617188 18.882812 -28.726562 C 19.386719 -28.730469 19.789062 -28.613281 20.097656 -28.375 C 20.359375 -28.070312 20.570312 -27.707031 20.742188 -27.226562 C 20.859375 -26.738281 20.925781 -26.1875 20.898438 -25.515625 C 20.871094 -24.839844 20.839844 -24.167969 20.710938 -23.425781 L 20.765625 -23.433594 L 16.027344 -14.8125 C 15.667969 -14.097656 15.152344 -13.308594 14.585938 -12.460938 C 13.96875 -11.601562 13.285156 -10.792969 12.535156 -10.085938 C 11.738281 -9.316406 10.914062 -8.769531 10.0625 -8.441406 C 9.160156 -8.050781 8.269531 -8.050781 7.429688 -8.507812 Z M 7.429688 -8.507812 "/></g></g></g><g fill="#ffde59" fill-opacity="1"><g transform="translate(273.389853, 185.647236)"><g><path d="M 2.625 -0.4375 C 3.984375 -0.269531 5.304688 -0.433594 6.636719 -0.929688 C 7.96875 -1.429688 9.28125 -2.09375 10.5625 -3.035156 C 11.792969 -3.910156 12.949219 -4.945312 14.089844 -6.09375 C 15.230469 -7.238281 16.304688 -8.488281 17.253906 -9.832031 C 18.15625 -11.113281 18.996094 -12.445312 19.78125 -13.769531 C 20.511719 -15.089844 21.144531 -16.28125 21.667969 -17.464844 C 19.480469 -14.402344 17.410156 -12.195312 15.566406 -10.851562 C 13.722656 -9.507812 12.128906 -8.863281 10.839844 -8.925781 C 9.5 -8.929688 8.632812 -9.605469 8.128906 -10.992188 C 7.628906 -12.324219 7.671875 -14.226562 8.265625 -16.644531 C 8.832031 -18.835938 9.550781 -20.710938 10.363281 -22.261719 C 11.183594 -23.757812 12.035156 -24.976562 12.917969 -25.980469 C 13.75 -26.917969 14.5625 -27.578125 15.398438 -28.015625 C 16.238281 -28.453125 16.933594 -28.707031 17.53125 -28.835938 C 17.96875 -28.890625 18.367188 -28.828125 18.675781 -28.589844 C 18.929688 -28.339844 19.082031 -28.023438 19.082031 -27.578125 C 19.023438 -27.125 18.875 -26.546875 18.5625 -25.894531 C 18.253906 -25.242188 17.722656 -24.5625 17.027344 -23.863281 C 16.78125 -23.609375 16.472656 -23.40625 16.167969 -23.144531 C 15.960938 -23.007812 15.761719 -22.816406 15.558594 -22.679688 C 15.351562 -22.542969 15.207031 -22.355469 15.054688 -22.226562 C 14.710938 -21.847656 14.476562 -21.484375 14.351562 -21.136719 C 14.171875 -20.777344 14.277344 -20.398438 14.605469 -19.996094 L 14.5 -19.925781 C 14.777344 -19.511719 15.1875 -19.339844 15.855469 -19.367188 C 16.519531 -19.394531 17.195312 -19.8125 17.984375 -20.636719 C 18.679688 -21.335938 19.238281 -22.242188 19.714844 -23.359375 C 20.195312 -24.421875 20.507812 -25.523438 20.699219 -26.660156 C 20.867188 -28.023438 20.78125 -29.183594 20.328125 -30.132812 C 19.875 -31.078125 18.984375 -31.527344 17.707031 -31.480469 C 15.832031 -31.304688 14.007812 -30.691406 12.347656 -29.703125 C 10.683594 -28.714844 9.101562 -27.515625 7.710938 -26.117188 C 6.273438 -24.65625 5.015625 -23.105469 3.878906 -21.460938 C 2.75 -19.757812 1.882812 -18.199219 1.164062 -16.773438 C 0.132812 -14.746094 -0.683594 -12.75 -1.21875 -10.785156 C -1.8125 -8.816406 -1.988281 -7.0625 -1.742188 -5.53125 C -1.527344 -3.773438 -0.980469 -2.5 -0.210938 -1.703125 C 0.558594 -0.90625 1.5 -0.519531 2.625 -0.4375 Z M 2.625 -0.4375 "/></g></g></g><g fill="#ffde59" fill-opacity="1"><g transform="translate(293.0637, 183.217349)"><g><path d="M -0.460938 -12.332031 L -7.253906 0.449219 L 1.042969 -0.574219 L 7.058594 -11.976562 C 7.683594 -8.707031 8.589844 -6.363281 9.71875 -4.882812 C 10.796875 -3.398438 12.074219 -2.550781 13.4375 -2.328125 C 14.757812 -2.046875 16.171875 -2.332031 17.628906 -3.183594 C 19.085938 -4.03125 20.566406 -5.164062 22.003906 -6.625 C 23.394531 -8.023438 24.699219 -9.636719 25.925781 -11.460938 C 27.152344 -13.285156 28.210938 -15.089844 29.050781 -16.867188 C 28.605469 -16.421875 28.214844 -15.984375 27.8125 -15.597656 C 27.421875 -15.160156 27.03125 -14.722656 26.691406 -14.289062 C 26.019531 -13.425781 25.28125 -12.609375 24.46875 -11.949219 C 23.664062 -11.238281 22.777344 -10.738281 21.804688 -10.503906 C 20.835938 -10.21875 19.597656 -10.289062 18.203125 -10.730469 C 17.105469 -11.039062 16.097656 -11.53125 15.171875 -12.253906 C 14.25 -12.921875 13.484375 -13.71875 12.8125 -14.640625 C 13.304688 -14.699219 13.953125 -14.890625 14.695312 -15.207031 C 16.125 -15.828125 17.800781 -16.707031 19.65625 -17.941406 C 20.539062 -18.496094 21.609375 -19.296875 22.9375 -20.296875 C 24.210938 -21.292969 25.304688 -22.375 26.273438 -23.554688 C 27.195312 -24.675781 27.792969 -25.695312 28.125 -26.628906 C 28.457031 -27.5625 28.472656 -28.347656 28.226562 -28.984375 C 27.925781 -29.617188 27.476562 -30.066406 26.769531 -30.367188 C 26.0625 -30.671875 25.210938 -30.789062 24.167969 -30.660156 C 23.125 -30.53125 21.949219 -30.109375 20.582031 -29.4375 C 18.792969 -28.546875 17.152344 -27.394531 15.652344 -25.980469 C 14.152344 -24.570312 12.816406 -23.175781 11.703125 -21.8125 L 11.652344 -21.75 L 16.28125 -30.355469 C 16.632812 -30.679688 17.039062 -31.007812 17.492188 -31.398438 C 17.945312 -31.789062 18.457031 -32.1875 18.957031 -32.640625 C 19.410156 -33.03125 19.914062 -33.484375 20.414062 -33.9375 C 20.917969 -34.390625 21.476562 -34.847656 22.023438 -35.363281 C 23.078125 -36.328125 24.179688 -37.359375 25.273438 -38.441406 C 26.367188 -39.527344 27.34375 -40.652344 28.304688 -41.886719 C 29.222656 -43.058594 30.027344 -44.21875 30.769531 -45.425781 C 31.460938 -46.628906 31.933594 -47.746094 32.246094 -48.84375 C 32.507812 -49.882812 32.550781 -50.890625 32.386719 -51.765625 C 32.167969 -52.628906 31.683594 -53.40625 30.816406 -54.082031 C 30.214844 -54.453125 29.507812 -54.757812 28.710938 -54.882812 C 27.914062 -55.003906 27.027344 -54.953125 26.105469 -54.726562 C 25.136719 -54.441406 24.242188 -53.996094 23.324219 -53.324219 C 22.402344 -52.652344 21.617188 -51.773438 20.914062 -50.683594 C 19.605469 -48.625 18.296875 -46.5625 17.101562 -44.519531 C 15.902344 -42.472656 14.65625 -40.367188 13.472656 -38.210938 C 11.039062 -33.949219 8.671875 -29.640625 6.355469 -25.335938 C 4.050781 -20.976562 1.796875 -16.625 -0.460938 -12.332031 Z M 17.207031 -33.707031 L 27.308594 -50.410156 C 27.585938 -50.890625 27.988281 -51.222656 28.417969 -51.386719 C 28.847656 -51.496094 29.1875 -51.480469 29.542969 -51.300781 C 29.789062 -51.109375 30.050781 -50.804688 30.214844 -50.378906 C 30.378906 -49.953125 30.390625 -49.398438 30.308594 -48.71875 C 30.167969 -48.03125 29.824219 -47.207031 29.378906 -46.316406 C 28.9375 -45.367188 28.226562 -44.332031 27.304688 -43.214844 C 26.535156 -42.226562 25.648438 -41.277344 24.710938 -40.269531 C 23.722656 -39.253906 22.777344 -38.300781 21.828125 -37.402344 C 20.933594 -36.511719 20.074219 -35.792969 19.265625 -35.132812 C 18.453125 -34.476562 17.730469 -33.996094 17.207031 -33.707031 Z M 7.5625 -13.320312 L 9.867188 -17.679688 L 12.25 -20.09375 C 12.695312 -20.539062 13.144531 -20.984375 13.640625 -21.492188 C 14.140625 -21.945312 14.589844 -22.390625 15.082031 -22.898438 C 16.03125 -23.796875 16.945312 -24.523438 17.828125 -25.078125 C 18.707031 -25.632812 19.402344 -25.886719 19.867188 -25.722656 L 19.875 -25.667969 C 20.636719 -25.371094 20.972656 -24.910156 20.820312 -24.332031 C 20.675781 -23.703125 20.207031 -22.972656 19.519531 -22.21875 C 18.785156 -21.402344 17.882812 -20.566406 16.761719 -19.703125 C 15.648438 -18.785156 14.519531 -17.976562 13.335938 -17.160156 C 12.105469 -16.28125 11.027344 -15.535156 9.996094 -14.847656 C 8.964844 -14.164062 8.132812 -13.671875 7.5625 -13.320312 Z M 7.5625 -13.320312 "/></g></g></g><g fill="#ffde59" fill-opacity="1"><g transform="translate(317.683626, 180.17658)"><g><path d="M 3.757812 -0.742188 C 5.117188 -0.578125 6.4375 -0.738281 7.769531 -1.238281 C 9.105469 -1.738281 10.417969 -2.402344 11.695312 -3.339844 C 12.925781 -4.21875 14.082031 -5.253906 15.222656 -6.398438 C 16.367188 -7.546875 17.4375 -8.792969 18.390625 -10.140625 C 19.289062 -11.421875 20.128906 -12.753906 20.914062 -14.078125 C 21.644531 -15.394531 22.28125 -16.589844 22.804688 -17.769531 C 20.613281 -14.710938 18.542969 -12.5 16.699219 -11.15625 C 14.859375 -9.8125 13.261719 -9.171875 11.972656 -9.234375 C 10.632812 -9.238281 9.769531 -9.910156 9.261719 -11.300781 C 8.761719 -12.632812 8.804688 -14.535156 9.402344 -16.953125 C 9.554688 -17.527344 9.703125 -18.105469 9.855469 -18.683594 C 10.015625 -19.203125 10.230469 -19.734375 10.441406 -20.261719 C 10.359375 -19.136719 10.617188 -18.386719 11.167969 -18.007812 C 11.660156 -17.621094 12.355469 -17.429688 13.179688 -17.53125 L 13.035156 -17.34375 C 14.585938 -17.425781 16.070312 -18.054688 17.386719 -19.164062 C 18.707031 -20.222656 19.71875 -21.519531 20.539062 -23.015625 C 20.855469 -23.613281 21.144531 -24.429688 21.460938 -25.472656 C 21.777344 -26.515625 21.9375 -27.484375 21.925781 -28.488281 C 21.921875 -29.433594 21.652344 -30.238281 21.234375 -30.914062 C 20.769531 -31.523438 19.953125 -31.816406 18.839844 -31.789062 C 16.964844 -31.613281 15.144531 -30.996094 13.480469 -30.011719 C 11.816406 -29.023438 10.234375 -27.824219 8.84375 -26.425781 C 7.40625 -24.964844 6.148438 -23.414062 5.011719 -21.765625 C 3.882812 -20.066406 3.015625 -18.507812 2.296875 -17.078125 C 1.265625 -15.054688 0.453125 -13.058594 -0.0859375 -11.09375 C -0.679688 -9.121094 -0.855469 -7.371094 -0.609375 -5.839844 C -0.390625 -4.082031 0.15625 -2.808594 0.921875 -2.011719 C 1.691406 -1.214844 2.632812 -0.828125 3.757812 -0.742188 Z M 12.511719 -20.238281 C 11.796875 -20.148438 11.363281 -20.488281 11.226562 -21.140625 C 11.035156 -21.785156 11.375 -22.664062 12.171875 -23.878906 C 13.238281 -25.628906 14.367188 -26.882812 15.558594 -27.644531 C 16.699219 -28.34375 17.703125 -28.800781 18.511719 -29.015625 L 18.566406 -29.019531 C 19.777344 -29.171875 20.277344 -28.730469 20.078125 -27.644531 C 19.925781 -27.066406 19.664062 -26.476562 19.296875 -25.820312 C 18.933594 -25.160156 18.457031 -24.488281 17.976562 -23.871094 C 17.011719 -22.636719 16.007812 -21.730469 15.019531 -21.160156 C 13.980469 -20.53125 13.183594 -20.210938 12.511719 -20.238281 Z M 12.511719 -20.238281 "/></g></g></g><g fill="#ffde59" fill-opacity="1"><g transform="translate(337.632256, 177.712756)"><g><path d="M 6.214844 -21.078125 L -4.691406 0.410156 L 2.890625 -0.523438 L 11.761719 -19.53125 C 12.378906 -20.835938 13.28125 -22.117188 14.402344 -23.429688 C 14.699219 -23.746094 15.09375 -24.183594 15.636719 -24.753906 C 16.1875 -25.265625 16.785156 -25.84375 17.5 -26.378906 C 18.160156 -26.90625 18.832031 -27.324219 19.507812 -27.742188 C 20.179688 -28.160156 20.820312 -28.40625 21.480469 -28.488281 C 22.089844 -28.507812 22.621094 -28.292969 23.003906 -27.894531 C 23.394531 -27.441406 23.652344 -26.691406 23.789062 -25.59375 C 23.859375 -25.042969 23.691406 -24.578125 23.363281 -24.089844 C 23.03125 -23.601562 22.625 -23.273438 22.101562 -22.984375 C 21.582031 -22.699219 20.996094 -22.457031 20.335938 -22.375 C 19.675781 -22.292969 19.050781 -22.386719 18.460938 -22.648438 C 18.242188 -21.726562 18.164062 -20.992188 18.234375 -20.441406 C 18.300781 -19.894531 18.527344 -19.417969 18.84375 -19.121094 C 19.109375 -18.765625 19.472656 -18.53125 19.878906 -18.414062 C 20.28125 -18.296875 20.679688 -18.234375 21.121094 -18.289062 C 22.125 -18.300781 22.984375 -18.574219 23.792969 -19.230469 C 24.550781 -19.882812 25.175781 -20.6875 25.722656 -21.703125 C 26.21875 -22.65625 26.589844 -23.707031 26.785156 -24.847656 C 26.976562 -25.988281 27.011719 -27.050781 26.882812 -28.09375 C 26.707031 -29.078125 26.371094 -29.984375 25.886719 -30.761719 C 25.34375 -31.53125 24.609375 -32.054688 23.691406 -32.277344 C 22.777344 -32.441406 21.789062 -32.320312 20.832031 -31.921875 C 19.882812 -31.472656 18.941406 -30.964844 18.074219 -30.300781 C 17.160156 -29.574219 16.308594 -28.796875 15.511719 -28.03125 C 14.71875 -27.207031 14.078125 -26.511719 13.535156 -25.945312 C 13.652344 -27.242188 13.519531 -28.339844 13.183594 -29.25 C 12.855469 -30.101562 12.230469 -30.636719 11.371094 -30.8125 C 10.691406 -30.894531 9.875 -30.738281 8.917969 -30.339844 C 7.964844 -29.941406 6.824219 -29.246094 5.550781 -28.25 C 6.078125 -27.589844 6.425781 -27.019531 6.714844 -26.496094 C 7.003906 -25.972656 7.125 -25.433594 7.195312 -24.882812 C 7.207031 -24.324219 7.117188 -23.699219 6.964844 -23.125 C 6.765625 -22.484375 6.515625 -21.785156 6.214844 -21.078125 Z M 5.488281 -28.296875 L 5.398438 -28.121094 L 5.550781 -28.25 Z M 5.488281 -28.296875 "/></g></g></g><g fill="#ff5757" fill-opacity="1"><g transform="translate(37.66138, 211.199562)"><g><path d="M 26.914062 -38.066406 C 27.828125 -38.296875 28.597656 -38.746094 29.355469 -39.308594 C 30.050781 -39.867188 30.613281 -40.585938 31.09375 -41.472656 C 31.945312 -43.167969 31.917969 -45.289062 31.140625 -47.789062 C 30.28125 -47.09375 29.429688 -46.808594 28.71875 -46.839844 C 27.949219 -46.863281 27.332031 -47.082031 26.855469 -47.613281 C 26.324219 -48.078125 25.949219 -48.738281 25.730469 -49.539062 C 25.515625 -50.335938 25.472656 -51.15625 25.589844 -52.117188 C 25.898438 -53.921875 26.613281 -55.308594 27.796875 -56.222656 C 28.980469 -57.136719 30.320312 -57.773438 31.816406 -58.074219 C 33.3125 -58.378906 34.878906 -58.570312 36.410156 -58.582031 C 37.890625 -58.53125 39.378906 -58.417969 40.816406 -58.242188 C 42.253906 -58.066406 43.640625 -57.824219 44.976562 -57.519531 C 45.585938 -57.359375 46.195312 -57.195312 46.75 -57.03125 C 47.300781 -56.863281 47.84375 -56.75 48.394531 -56.585938 C 48.890625 -56.410156 49.449219 -56.183594 50 -56.015625 C 50.5 -55.78125 51.117188 -55.5625 51.800781 -55.292969 C 52.421875 -55.015625 53.105469 -54.746094 53.789062 -54.476562 C 54.46875 -54.207031 55.144531 -53.996094 55.878906 -53.792969 C 57.292969 -53.316406 58.75 -52.96875 60.253906 -52.742188 C 61.699219 -52.503906 63.113281 -52.503906 64.378906 -52.777344 C 65.425781 -52.90625 66.382812 -53.261719 67.140625 -53.828125 C 67.902344 -54.332031 68.535156 -54.941406 69.03125 -55.710938 C 69.472656 -56.414062 69.792969 -57.164062 69.925781 -58.003906 C 70.066406 -58.789062 70.082031 -59.617188 69.980469 -60.429688 C 69.835938 -61.121094 69.574219 -61.796875 69.199219 -62.457031 C 68.824219 -63.117188 68.328125 -63.765625 67.726562 -64.339844 C 67.074219 -64.847656 66.363281 -65.351562 65.488281 -65.773438 C 64.617188 -66.136719 63.695312 -66.4375 62.613281 -66.597656 C 62.785156 -65.203125 62.796875 -64.144531 62.550781 -63.285156 C 62.300781 -62.429688 61.914062 -61.734375 61.382812 -61.253906 C 60.859375 -60.71875 60.199219 -60.34375 59.402344 -60.125 C 58.601562 -59.910156 57.796875 -59.75 56.96875 -59.765625 C 55.800781 -59.679688 54.679688 -59.660156 53.605469 -59.765625 C 52.480469 -59.800781 51.40625 -59.90625 50.382812 -60.074219 L 44.207031 -60.902344 C 42.171875 -61.125 40.097656 -61.222656 38.035156 -61.203125 C 35.972656 -61.183594 33.765625 -60.910156 31.367188 -60.261719 C 29.769531 -59.828125 28.191406 -59.21875 26.632812 -58.496094 C 25.070312 -57.773438 23.695312 -56.953125 22.453125 -56.035156 C 21.160156 -55.046875 20.0625 -53.910156 19.144531 -52.734375 C 18.234375 -51.503906 17.6875 -50.195312 17.394531 -48.746094 C 17.109375 -47.234375 17.121094 -45.703125 17.484375 -44.214844 C 17.785156 -42.71875 18.414062 -41.4375 19.257812 -40.363281 C 20.105469 -39.230469 21.148438 -38.414062 22.449219 -37.925781 C 23.6875 -37.429688 25.214844 -37.5 26.914062 -38.066406 Z M 11.132812 -1.550781 C 13.007812 -1.664062 14.75 -2.351562 16.371094 -3.554688 C 17.992188 -4.757812 19.570312 -6.308594 21.105469 -8.210938 C 22.644531 -10.050781 24.035156 -12.167969 25.390625 -14.578125 C 26.75 -16.929688 28.097656 -19.394531 29.429688 -21.976562 C 30.144531 -23.363281 30.945312 -24.996094 31.847656 -26.757812 C 32.75 -28.523438 33.707031 -30.351562 34.761719 -32.308594 L 36.296875 -35.152344 C 37.503906 -37.308594 38.773438 -39.46875 40.039062 -41.632812 C 41.304688 -43.792969 42.542969 -45.714844 43.800781 -47.464844 C 45.007812 -49.148438 46.136719 -50.523438 47.300781 -51.613281 C 48.40625 -52.691406 49.386719 -53.34375 50.300781 -53.574219 C 49.183594 -54.5 47.980469 -54.703125 46.742188 -54.199219 C 45.449219 -53.683594 44.039062 -52.683594 42.449219 -51.25 C 41.976562 -50.777344 41.363281 -49.996094 40.558594 -48.890625 C 39.757812 -47.730469 38.796875 -46.433594 37.808594 -44.894531 C 36.757812 -43.351562 35.609375 -41.675781 34.417969 -39.875 C 33.222656 -38.078125 31.972656 -36.269531 30.71875 -34.464844 L 28.660156 -31.554688 C 27.746094 -30.382812 26.886719 -29.214844 26.011719 -28.164062 C 25.140625 -27.109375 24.316406 -26.125 23.53125 -25.320312 C 22.441406 -24.125 21.394531 -23.050781 20.332031 -22.09375 C 19.277344 -21.078125 18.203125 -20.238281 17.171875 -19.519531 C 16.089844 -18.738281 15.101562 -18.144531 14.148438 -17.730469 C 13.195312 -17.320312 12.339844 -17.09375 11.511719 -17.109375 C 10.691406 -17.070312 9.898438 -17.265625 9.203125 -17.652344 C 8.507812 -18.039062 7.949219 -18.734375 7.53125 -19.746094 C 7.058594 -20.691406 6.785156 -21.953125 6.648438 -23.53125 C 6.519531 -25.046875 6.632812 -27.007812 6.992188 -29.351562 C 5.429688 -28.628906 4.070312 -27.695312 3.039062 -26.503906 C 1.945312 -25.308594 1.042969 -24.015625 0.339844 -22.574219 C -0.417969 -21.0625 -0.9375 -19.523438 -1.207031 -17.898438 C -1.53125 -16.207031 -1.625 -14.605469 -1.554688 -13.078125 C -1.472656 -11.4375 -1.15625 -9.824219 -0.621094 -8.359375 C -0.0859375 -6.890625 0.660156 -5.625 1.734375 -4.578125 C 2.757812 -3.464844 4.039062 -2.621094 5.578125 -2.105469 C 7.125 -1.527344 8.976562 -1.34375 11.132812 -1.550781 Z M 11.132812 -1.550781 "/></g></g></g><g fill="#ff5757" fill-opacity="1"><g transform="translate(75.189139, 206.564567)"><g><path d="M 6.566406 -22.28125 L -4.960938 0.4375 L 3.058594 -0.554688 L 12.429688 -20.644531 C 13.085938 -22.023438 14.039062 -23.378906 15.226562 -24.765625 C 15.539062 -25.097656 15.953125 -25.5625 16.527344 -26.164062 C 17.109375 -26.707031 17.742188 -27.316406 18.496094 -27.882812 C 19.195312 -28.441406 19.90625 -28.882812 20.621094 -29.324219 C 21.332031 -29.765625 22.007812 -30.027344 22.703125 -30.113281 C 23.351562 -30.132812 23.910156 -29.90625 24.316406 -29.484375 C 24.730469 -29.007812 25.003906 -28.214844 25.148438 -27.050781 C 25.21875 -26.472656 25.042969 -25.976562 24.695312 -25.464844 C 24.34375 -24.949219 23.917969 -24.601562 23.363281 -24.296875 C 22.8125 -23.992188 22.195312 -23.738281 21.496094 -23.652344 C 20.800781 -23.566406 20.140625 -23.660156 19.515625 -23.9375 C 19.28125 -22.964844 19.199219 -22.191406 19.273438 -21.609375 C 19.34375 -21.027344 19.582031 -20.527344 19.917969 -20.214844 C 20.199219 -19.835938 20.582031 -19.589844 21.011719 -19.464844 C 21.441406 -19.339844 21.859375 -19.273438 22.324219 -19.332031 C 23.386719 -19.34375 24.292969 -19.632812 25.152344 -20.328125 C 25.953125 -21.019531 26.613281 -21.867188 27.1875 -22.941406 C 27.714844 -23.949219 28.105469 -25.058594 28.3125 -26.265625 C 28.515625 -27.46875 28.554688 -28.59375 28.417969 -29.699219 C 28.230469 -30.738281 27.875 -31.695312 27.363281 -32.515625 C 26.789062 -33.332031 26.015625 -33.882812 25.042969 -34.117188 C 24.074219 -34.292969 23.03125 -34.164062 22.019531 -33.746094 C 21.019531 -33.265625 20.023438 -32.730469 19.105469 -32.027344 C 18.140625 -31.257812 17.238281 -30.441406 16.394531 -29.628906 C 15.558594 -28.757812 14.882812 -28.027344 14.308594 -27.425781 C 14.433594 -28.796875 14.289062 -29.957031 13.933594 -30.917969 C 13.589844 -31.816406 12.929688 -32.386719 12.019531 -32.566406 C 11.300781 -32.65625 10.4375 -32.492188 9.429688 -32.070312 C 8.417969 -31.652344 7.210938 -30.914062 5.867188 -29.863281 C 6.425781 -29.164062 6.792969 -28.5625 7.097656 -28.007812 C 7.402344 -27.457031 7.53125 -26.882812 7.605469 -26.300781 C 7.617188 -25.714844 7.523438 -25.054688 7.363281 -24.441406 C 7.148438 -23.769531 6.886719 -23.027344 6.566406 -22.28125 Z M 5.800781 -29.914062 L 5.707031 -29.722656 L 5.867188 -29.863281 Z M 5.800781 -29.914062 "/></g></g></g><g fill="#ff5757" fill-opacity="1"><g transform="translate(100.575317, 203.429159)"><g><path d="M 12.046875 -2.253906 C 12.308594 -2.050781 12.804688 -1.875 13.398438 -1.832031 C 13.992188 -1.789062 14.640625 -1.808594 15.332031 -1.953125 C 16.027344 -2.039062 16.769531 -2.246094 17.503906 -2.515625 C 18.234375 -2.78125 18.898438 -3.160156 19.550781 -3.59375 C 20.742188 -4.449219 21.796875 -5.464844 22.707031 -6.699219 C 23.625 -7.871094 24.402344 -9.207031 25.109375 -10.652344 C 25.4375 -11.339844 25.765625 -12.03125 26.09375 -12.71875 C 26.425781 -13.351562 26.753906 -14.039062 27.140625 -14.734375 C 26.835938 -14.34375 26.421875 -13.878906 25.890625 -13.402344 C 25.359375 -12.921875 24.820312 -12.503906 24.277344 -12.140625 C 23.679688 -11.714844 23.132812 -11.351562 22.574219 -11.105469 C 22.023438 -10.800781 21.507812 -10.679688 21.144531 -10.75 C 20.789062 -10.765625 20.644531 -10.984375 20.703125 -11.464844 C 20.710938 -11.878906 20.972656 -12.617188 21.546875 -13.691406 L 32.78125 -34.957031 L 24.589844 -33.945312 L 16.464844 -19.019531 C 16.132812 -18.390625 15.839844 -17.882812 15.601562 -17.4375 C 15.367188 -16.9375 15.175781 -16.5625 14.988281 -16.183594 C 14.746094 -15.742188 14.558594 -15.363281 14.363281 -15.042969 C 14.171875 -14.667969 13.917969 -14.339844 13.722656 -14.023438 C 13.21875 -13.3125 12.710938 -12.660156 12.078125 -12.050781 C 11.453125 -11.382812 10.59375 -10.6875 9.570312 -9.910156 C 8.378906 -9.054688 7.527344 -8.773438 7.011719 -9.125 C 6.445312 -9.40625 6.449219 -10.351562 6.972656 -11.832031 C 7.316406 -12.878906 7.871094 -14.125 8.632812 -15.574219 C 9.339844 -17.019531 10.046875 -18.464844 10.8125 -19.914062 C 11.523438 -21.300781 12.128906 -22.613281 12.683594 -23.863281 C 13.238281 -25.109375 13.535156 -26.03125 13.566406 -26.742188 C 13.597656 -27.925781 13.425781 -28.847656 13.089844 -29.632812 C 12.757812 -30.417969 12.273438 -31.007812 11.691406 -31.40625 C 10.988281 -31.851562 10.199219 -32.046875 9.371094 -32.0625 C 8.542969 -32.078125 7.683594 -31.855469 6.84375 -31.515625 C 7.304688 -31.101562 7.648438 -30.730469 7.804688 -30.394531 C 7.972656 -30.003906 7.964844 -29.589844 7.898438 -29.167969 C 7.78125 -28.683594 7.554688 -28.125 7.273438 -27.558594 C 6.9375 -26.925781 6.542969 -26.289062 6.164062 -25.535156 L 6.179688 -25.417969 L -2.386719 -10.734375 C -2.691406 -10.34375 -2.925781 -9.84375 -3.210938 -9.277344 C -3.492188 -8.710938 -3.769531 -8.085938 -3.988281 -7.46875 C -4.535156 -5.691406 -4.539062 -4.277344 -4.054688 -3.214844 C -3.5625 -2.097656 -2.765625 -1.367188 -1.703125 -0.910156 C -0.703125 -0.445312 0.4375 -0.289062 1.714844 -0.449219 C 2.992188 -0.605469 4.109375 -1.097656 5.070312 -1.925781 C 5.980469 -2.683594 7.027344 -3.757812 8.261719 -5.207031 C 9.507812 -6.601562 10.625 -8.035156 11.734375 -9.589844 C 11.324219 -8.59375 11.03125 -7.613281 10.90625 -6.714844 C 10.679688 -5.683594 10.671875 -4.796875 10.824219 -4.050781 C 10.984375 -3.242188 11.410156 -2.648438 12.046875 -2.253906 Z M 12.046875 -2.253906 "/></g></g></g><g fill="#ff5757" fill-opacity="1"><g transform="translate(125.322463, 200.372678)"><g><path d="M 2.773438 -0.460938 C 4.210938 -0.285156 5.605469 -0.457031 7.015625 -0.984375 C 8.425781 -1.511719 9.8125 -2.214844 11.164062 -3.207031 C 12.464844 -4.136719 13.6875 -5.230469 14.894531 -6.441406 C 16.101562 -7.652344 17.234375 -8.96875 18.238281 -10.390625 C 19.191406 -11.75 20.082031 -13.15625 20.910156 -14.554688 C 21.683594 -15.949219 22.351562 -17.210938 22.90625 -18.460938 C 20.59375 -15.222656 18.402344 -12.890625 16.453125 -11.46875 C 14.507812 -10.050781 12.820312 -9.371094 11.457031 -9.4375 C 10.039062 -9.4375 9.128906 -10.152344 8.59375 -11.617188 C 8.0625 -13.027344 8.109375 -15.039062 8.738281 -17.59375 C 9.335938 -19.910156 10.09375 -21.890625 10.953125 -23.53125 C 11.820312 -25.113281 12.722656 -26.402344 13.652344 -27.460938 C 14.535156 -28.457031 15.390625 -29.152344 16.277344 -29.613281 C 17.164062 -30.078125 17.898438 -30.34375 18.53125 -30.480469 C 18.996094 -30.539062 19.417969 -30.472656 19.742188 -30.21875 C 20.011719 -29.957031 20.171875 -29.621094 20.167969 -29.152344 C 20.109375 -28.671875 19.949219 -28.0625 19.621094 -27.371094 C 19.292969 -26.683594 18.734375 -25.964844 18 -25.226562 C 17.738281 -24.957031 17.410156 -24.742188 17.089844 -24.464844 C 16.875 -24.320312 16.664062 -24.117188 16.445312 -23.972656 C 16.226562 -23.828125 16.074219 -23.632812 15.914062 -23.492188 C 15.550781 -23.09375 15.300781 -22.710938 15.171875 -22.339844 C 14.980469 -21.964844 15.089844 -21.5625 15.4375 -21.136719 L 15.328125 -21.0625 C 15.617188 -20.625 16.054688 -20.445312 16.757812 -20.472656 C 17.464844 -20.5 18.175781 -20.941406 19.011719 -21.8125 C 19.746094 -22.550781 20.335938 -23.507812 20.839844 -24.691406 C 21.347656 -25.816406 21.675781 -26.976562 21.882812 -28.183594 C 22.058594 -29.621094 21.964844 -30.847656 21.488281 -31.851562 C 21.011719 -32.851562 20.066406 -33.324219 18.714844 -33.277344 C 16.734375 -33.089844 14.808594 -32.441406 13.050781 -31.398438 C 11.292969 -30.355469 9.621094 -29.085938 8.152344 -27.609375 C 6.632812 -26.0625 5.300781 -24.425781 4.097656 -22.683594 C 2.90625 -20.882812 1.988281 -19.238281 1.230469 -17.730469 C 0.140625 -15.589844 -0.722656 -13.476562 -1.289062 -11.402344 C -1.917969 -9.316406 -2.101562 -7.46875 -1.84375 -5.847656 C -1.613281 -3.988281 -1.035156 -2.644531 -0.222656 -1.800781 C 0.589844 -0.957031 1.582031 -0.550781 2.773438 -0.460938 Z M 2.773438 -0.460938 "/></g></g></g><g fill="#ff5757" fill-opacity="1"><g transform="translate(146.119238, 197.8041)"><g><path d="M -0.488281 -13.035156 L -7.667969 0.476562 L 1.105469 -0.609375 L 7.460938 -12.660156 C 8.125 -9.203125 9.078125 -6.722656 10.273438 -5.160156 C 11.410156 -3.59375 12.761719 -2.695312 14.207031 -2.460938 C 15.597656 -2.164062 17.09375 -2.464844 18.636719 -3.363281 C 20.175781 -4.261719 21.738281 -5.457031 23.257812 -7 C 24.726562 -8.480469 26.109375 -10.183594 27.40625 -12.113281 C 28.699219 -14.042969 29.820312 -15.953125 30.710938 -17.832031 C 30.238281 -17.359375 29.824219 -16.894531 29.402344 -16.488281 C 28.988281 -16.023438 28.570312 -15.5625 28.214844 -15.105469 C 27.503906 -14.191406 26.722656 -13.328125 25.867188 -12.632812 C 25.015625 -11.878906 24.078125 -11.347656 23.046875 -11.105469 C 22.023438 -10.800781 20.714844 -10.875 19.242188 -11.34375 C 18.082031 -11.671875 17.015625 -12.1875 16.035156 -12.953125 C 15.0625 -13.65625 14.253906 -14.5 13.542969 -15.472656 C 14.066406 -15.539062 14.746094 -15.742188 15.53125 -16.074219 C 17.042969 -16.734375 18.816406 -17.660156 20.777344 -18.964844 C 21.710938 -19.550781 22.84375 -20.398438 24.246094 -21.457031 C 25.589844 -22.507812 26.746094 -23.652344 27.773438 -24.898438 C 28.746094 -26.082031 29.378906 -27.164062 29.730469 -28.148438 C 30.082031 -29.136719 30.097656 -29.964844 29.835938 -30.640625 C 29.515625 -31.308594 29.046875 -31.78125 28.296875 -32.101562 C 27.550781 -32.421875 26.652344 -32.546875 25.546875 -32.410156 C 24.441406 -32.273438 23.199219 -31.824219 21.753906 -31.117188 C 19.867188 -30.175781 18.128906 -28.957031 16.542969 -27.464844 C 14.957031 -25.972656 13.546875 -24.5 12.371094 -23.054688 L 12.320312 -22.992188 L 17.210938 -32.089844 C 17.582031 -32.429688 18.011719 -32.777344 18.492188 -33.191406 C 18.972656 -33.605469 19.507812 -34.023438 20.039062 -34.503906 C 20.519531 -34.914062 21.050781 -35.394531 21.582031 -35.871094 C 22.113281 -36.351562 22.699219 -36.835938 23.28125 -37.378906 C 24.394531 -38.402344 25.558594 -39.488281 26.714844 -40.636719 C 27.871094 -41.78125 28.902344 -42.96875 29.921875 -44.273438 C 30.886719 -45.515625 31.738281 -46.742188 32.527344 -48.019531 C 33.253906 -49.289062 33.757812 -50.46875 34.085938 -51.632812 C 34.363281 -52.726562 34.40625 -53.792969 34.234375 -54.71875 C 34.003906 -55.632812 33.488281 -56.453125 32.574219 -57.167969 C 31.9375 -57.558594 31.191406 -57.878906 30.347656 -58.011719 C 29.503906 -58.144531 28.570312 -58.085938 27.597656 -57.847656 C 26.570312 -57.546875 25.625 -57.074219 24.652344 -56.363281 C 23.679688 -55.65625 22.851562 -54.726562 22.109375 -53.574219 C 20.726562 -51.398438 19.34375 -49.222656 18.074219 -47.058594 C 16.808594 -44.898438 15.492188 -42.671875 14.238281 -40.390625 C 11.667969 -35.886719 9.164062 -31.332031 6.71875 -26.78125 C 4.28125 -22.175781 1.898438 -17.574219 -0.488281 -13.035156 Z M 18.191406 -35.628906 L 28.867188 -53.289062 C 29.15625 -53.796875 29.585938 -54.144531 30.039062 -54.316406 C 30.496094 -54.433594 30.851562 -54.417969 31.226562 -54.226562 C 31.488281 -54.023438 31.765625 -53.703125 31.9375 -53.253906 C 32.113281 -52.804688 32.125 -52.214844 32.039062 -51.496094 C 31.890625 -50.769531 31.527344 -49.898438 31.054688 -48.957031 C 30.585938 -47.957031 29.835938 -46.859375 28.863281 -45.679688 C 28.046875 -44.632812 27.109375 -43.632812 26.121094 -42.566406 C 25.074219 -41.496094 24.078125 -40.488281 23.074219 -39.535156 C 22.128906 -38.59375 21.21875 -37.832031 20.363281 -37.136719 C 19.503906 -36.441406 18.742188 -35.933594 18.191406 -35.628906 Z M 7.992188 -14.082031 L 10.433594 -18.6875 L 12.949219 -21.242188 C 13.421875 -21.710938 13.894531 -22.183594 14.417969 -22.71875 C 14.949219 -23.199219 15.421875 -23.667969 15.945312 -24.207031 C 16.945312 -25.15625 17.914062 -25.921875 18.84375 -26.511719 C 19.773438 -27.097656 20.507812 -27.363281 21 -27.191406 L 21.007812 -27.132812 C 21.8125 -26.816406 22.167969 -26.332031 22.007812 -25.722656 C 21.855469 -25.054688 21.359375 -24.285156 20.632812 -23.488281 C 19.855469 -22.625 18.902344 -21.738281 17.71875 -20.828125 C 16.539062 -19.855469 15.347656 -19 14.097656 -18.136719 C 12.796875 -17.210938 11.65625 -16.421875 10.566406 -15.695312 C 9.476562 -14.972656 8.597656 -14.449219 7.992188 -14.082031 Z M 7.992188 -14.082031 "/></g></g></g><g fill="#ffde59" fill-opacity="1"><g transform="translate(38.963194, 210.252323)"><g><path d="M 26.914062 -38.066406 C 27.828125 -38.296875 28.597656 -38.746094 29.355469 -39.308594 C 30.050781 -39.867188 30.613281 -40.585938 31.09375 -41.472656 C 31.945312 -43.167969 31.917969 -45.289062 31.140625 -47.789062 C 30.28125 -47.09375 29.429688 -46.808594 28.71875 -46.839844 C 27.949219 -46.863281 27.332031 -47.082031 26.855469 -47.613281 C 26.324219 -48.078125 25.949219 -48.738281 25.730469 -49.539062 C 25.515625 -50.335938 25.472656 -51.15625 25.589844 -52.117188 C 25.898438 -53.921875 26.613281 -55.308594 27.796875 -56.222656 C 28.980469 -57.136719 30.320312 -57.773438 31.816406 -58.074219 C 33.3125 -58.378906 34.878906 -58.570312 36.410156 -58.582031 C 37.890625 -58.53125 39.378906 -58.417969 40.816406 -58.242188 C 42.253906 -58.066406 43.640625 -57.824219 44.976562 -57.519531 C 45.585938 -57.359375 46.195312 -57.195312 46.75 -57.03125 C 47.300781 -56.863281 47.84375 -56.75 48.394531 -56.585938 C 48.890625 -56.410156 49.449219 -56.183594 50 -56.015625 C 50.5 -55.78125 51.117188 -55.5625 51.800781 -55.292969 C 52.421875 -55.015625 53.105469 -54.746094 53.789062 -54.476562 C 54.46875 -54.207031 55.144531 -53.996094 55.878906 -53.792969 C 57.292969 -53.316406 58.75 -52.96875 60.253906 -52.742188 C 61.699219 -52.503906 63.113281 -52.503906 64.378906 -52.777344 C 65.425781 -52.90625 66.382812 -53.261719 67.140625 -53.828125 C 67.902344 -54.332031 68.535156 -54.941406 69.03125 -55.710938 C 69.472656 -56.414062 69.792969 -57.164062 69.925781 -58.003906 C 70.066406 -58.789062 70.082031 -59.617188 69.980469 -60.429688 C 69.835938 -61.121094 69.574219 -61.796875 69.199219 -62.457031 C 68.824219 -63.117188 68.328125 -63.765625 67.726562 -64.339844 C 67.074219 -64.847656 66.363281 -65.351562 65.488281 -65.773438 C 64.617188 -66.136719 63.695312 -66.4375 62.613281 -66.597656 C 62.785156 -65.203125 62.796875 -64.144531 62.550781 -63.285156 C 62.300781 -62.429688 61.914062 -61.734375 61.382812 -61.253906 C 60.859375 -60.71875 60.199219 -60.34375 59.402344 -60.125 C 58.601562 -59.910156 57.796875 -59.75 56.96875 -59.765625 C 55.800781 -59.679688 54.679688 -59.660156 53.605469 -59.765625 C 52.480469 -59.800781 51.40625 -59.90625 50.382812 -60.074219 L 44.207031 -60.902344 C 42.171875 -61.125 40.097656 -61.222656 38.035156 -61.203125 C 35.972656 -61.183594 33.765625 -60.910156 31.367188 -60.261719 C 29.769531 -59.828125 28.191406 -59.21875 26.632812 -58.496094 C 25.070312 -57.773438 23.695312 -56.953125 22.453125 -56.035156 C 21.160156 -55.046875 20.0625 -53.910156 19.144531 -52.734375 C 18.234375 -51.503906 17.6875 -50.195312 17.394531 -48.746094 C 17.109375 -47.234375 17.121094 -45.703125 17.484375 -44.214844 C 17.785156 -42.71875 18.414062 -41.4375 19.257812 -40.363281 C 20.105469 -39.230469 21.148438 -38.414062 22.449219 -37.925781 C 23.6875 -37.429688 25.214844 -37.5 26.914062 -38.066406 Z M 11.132812 -1.550781 C 13.007812 -1.664062 14.75 -2.351562 16.371094 -3.554688 C 17.992188 -4.757812 19.570312 -6.308594 21.105469 -8.210938 C 22.644531 -10.050781 24.035156 -12.167969 25.390625 -14.578125 C 26.75 -16.929688 28.097656 -19.394531 29.429688 -21.976562 C 30.144531 -23.363281 30.945312 -24.996094 31.847656 -26.757812 C 32.75 -28.523438 33.707031 -30.351562 34.761719 -32.308594 L 36.296875 -35.152344 C 37.503906 -37.308594 38.773438 -39.46875 40.039062 -41.632812 C 41.304688 -43.792969 42.542969 -45.714844 43.800781 -47.464844 C 45.007812 -49.148438 46.136719 -50.523438 47.300781 -51.613281 C 48.40625 -52.691406 49.386719 -53.34375 50.300781 -53.574219 C 49.183594 -54.5 47.980469 -54.703125 46.742188 -54.199219 C 45.449219 -53.683594 44.039062 -52.683594 42.449219 -51.25 C 41.976562 -50.777344 41.363281 -49.996094 40.558594 -48.890625 C 39.757812 -47.730469 38.796875 -46.433594 37.808594 -44.894531 C 36.757812 -43.351562 35.609375 -41.675781 34.417969 -39.875 C 33.222656 -38.078125 31.972656 -36.269531 30.71875 -34.464844 L 28.660156 -31.554688 C 27.746094 -30.382812 26.886719 -29.214844 26.011719 -28.164062 C 25.140625 -27.109375 24.316406 -26.125 23.53125 -25.320312 C 22.441406 -24.125 21.394531 -23.050781 20.332031 -22.09375 C 19.277344 -21.078125 18.203125 -20.238281 17.171875 -19.519531 C 16.089844 -18.738281 15.101562 -18.144531 14.148438 -17.730469 C 13.195312 -17.320312 12.339844 -17.09375 11.511719 -17.109375 C 10.691406 -17.070312 9.898438 -17.265625 9.203125 -17.652344 C 8.507812 -18.039062 7.949219 -18.734375 7.53125 -19.746094 C 7.058594 -20.691406 6.785156 -21.953125 6.648438 -23.53125 C 6.519531 -25.046875 6.632812 -27.007812 6.992188 -29.351562 C 5.429688 -28.628906 4.070312 -27.695312 3.039062 -26.503906 C 1.945312 -25.308594 1.042969 -24.015625 0.339844 -22.574219 C -0.417969 -21.0625 -0.9375 -19.523438 -1.207031 -17.898438 C -1.53125 -16.207031 -1.625 -14.605469 -1.554688 -13.078125 C -1.472656 -11.4375 -1.15625 -9.824219 -0.621094 -8.359375 C -0.0859375 -6.890625 0.660156 -5.625 1.734375 -4.578125 C 2.757812 -3.464844 4.039062 -2.621094 5.578125 -2.105469 C 7.125 -1.527344 8.976562 -1.34375 11.132812 -1.550781 Z M 11.132812 -1.550781 "/></g></g></g><g fill="#ffde59" fill-opacity="1"><g transform="translate(76.490953, 205.617328)"><g><path d="M 6.566406 -22.28125 L -4.960938 0.4375 L 3.058594 -0.554688 L 12.429688 -20.644531 C 13.085938 -22.023438 14.039062 -23.378906 15.226562 -24.765625 C 15.539062 -25.097656 15.953125 -25.5625 16.527344 -26.164062 C 17.109375 -26.707031 17.742188 -27.316406 18.496094 -27.882812 C 19.195312 -28.441406 19.90625 -28.882812 20.621094 -29.324219 C 21.332031 -29.765625 22.007812 -30.027344 22.703125 -30.113281 C 23.351562 -30.132812 23.910156 -29.90625 24.316406 -29.484375 C 24.730469 -29.007812 25.003906 -28.214844 25.148438 -27.050781 C 25.21875 -26.472656 25.042969 -25.976562 24.695312 -25.464844 C 24.34375 -24.949219 23.917969 -24.601562 23.363281 -24.296875 C 22.8125 -23.992188 22.195312 -23.738281 21.496094 -23.652344 C 20.800781 -23.566406 20.140625 -23.660156 19.515625 -23.9375 C 19.28125 -22.964844 19.199219 -22.191406 19.273438 -21.609375 C 19.34375 -21.027344 19.582031 -20.527344 19.917969 -20.214844 C 20.199219 -19.835938 20.582031 -19.589844 21.011719 -19.464844 C 21.441406 -19.339844 21.859375 -19.273438 22.324219 -19.332031 C 23.386719 -19.34375 24.292969 -19.632812 25.152344 -20.328125 C 25.953125 -21.019531 26.613281 -21.867188 27.1875 -22.941406 C 27.714844 -23.949219 28.105469 -25.058594 28.3125 -26.265625 C 28.515625 -27.46875 28.554688 -28.59375 28.417969 -29.699219 C 28.230469 -30.738281 27.875 -31.695312 27.363281 -32.515625 C 26.789062 -33.332031 26.015625 -33.882812 25.042969 -34.117188 C 24.074219 -34.292969 23.03125 -34.164062 22.019531 -33.746094 C 21.019531 -33.265625 20.023438 -32.730469 19.105469 -32.027344 C 18.140625 -31.257812 17.238281 -30.441406 16.394531 -29.628906 C 15.558594 -28.757812 14.882812 -28.027344 14.308594 -27.425781 C 14.433594 -28.796875 14.289062 -29.957031 13.933594 -30.917969 C 13.589844 -31.816406 12.929688 -32.386719 12.019531 -32.566406 C 11.300781 -32.65625 10.4375 -32.492188 9.429688 -32.070312 C 8.417969 -31.652344 7.210938 -30.914062 5.867188 -29.863281 C 6.425781 -29.164062 6.792969 -28.5625 7.097656 -28.007812 C 7.402344 -27.457031 7.53125 -26.882812 7.605469 -26.300781 C 7.617188 -25.714844 7.523438 -25.054688 7.363281 -24.441406 C 7.148438 -23.769531 6.886719 -23.027344 6.566406 -22.28125 Z M 5.800781 -29.914062 L 5.707031 -29.722656 L 5.867188 -29.863281 Z M 5.800781 -29.914062 "/></g></g></g><g fill="#ffde59" fill-opacity="1"><g transform="translate(101.877131, 202.48192)"><g><path d="M 12.046875 -2.253906 C 12.308594 -2.050781 12.804688 -1.875 13.398438 -1.832031 C 13.992188 -1.789062 14.640625 -1.808594 15.332031 -1.953125 C 16.027344 -2.039062 16.769531 -2.246094 17.503906 -2.515625 C 18.234375 -2.78125 18.898438 -3.160156 19.550781 -3.59375 C 20.742188 -4.449219 21.796875 -5.464844 22.707031 -6.699219 C 23.625 -7.871094 24.402344 -9.207031 25.109375 -10.652344 C 25.4375 -11.339844 25.765625 -12.03125 26.09375 -12.71875 C 26.425781 -13.351562 26.753906 -14.039062 27.140625 -14.734375 C 26.835938 -14.34375 26.421875 -13.878906 25.890625 -13.402344 C 25.359375 -12.921875 24.820312 -12.503906 24.277344 -12.140625 C 23.679688 -11.714844 23.132812 -11.351562 22.574219 -11.105469 C 22.023438 -10.800781 21.507812 -10.679688 21.144531 -10.75 C 20.789062 -10.765625 20.644531 -10.984375 20.703125 -11.464844 C 20.710938 -11.878906 20.972656 -12.617188 21.546875 -13.691406 L 32.78125 -34.957031 L 24.589844 -33.945312 L 16.464844 -19.019531 C 16.132812 -18.390625 15.839844 -17.882812 15.601562 -17.4375 C 15.367188 -16.9375 15.175781 -16.5625 14.988281 -16.183594 C 14.746094 -15.742188 14.558594 -15.363281 14.363281 -15.042969 C 14.171875 -14.667969 13.917969 -14.339844 13.722656 -14.023438 C 13.21875 -13.3125 12.710938 -12.660156 12.078125 -12.050781 C 11.453125 -11.382812 10.59375 -10.6875 9.570312 -9.910156 C 8.378906 -9.054688 7.527344 -8.773438 7.011719 -9.125 C 6.445312 -9.40625 6.449219 -10.351562 6.972656 -11.832031 C 7.316406 -12.878906 7.871094 -14.125 8.632812 -15.574219 C 9.339844 -17.019531 10.046875 -18.464844 10.8125 -19.914062 C 11.523438 -21.300781 12.128906 -22.613281 12.683594 -23.863281 C 13.238281 -25.109375 13.535156 -26.03125 13.566406 -26.742188 C 13.597656 -27.925781 13.425781 -28.847656 13.089844 -29.632812 C 12.757812 -30.417969 12.273438 -31.007812 11.691406 -31.40625 C 10.988281 -31.851562 10.199219 -32.046875 9.371094 -32.0625 C 8.542969 -32.078125 7.683594 -31.855469 6.84375 -31.515625 C 7.304688 -31.101562 7.648438 -30.730469 7.804688 -30.394531 C 7.972656 -30.003906 7.964844 -29.589844 7.898438 -29.167969 C 7.78125 -28.683594 7.554688 -28.125 7.273438 -27.558594 C 6.9375 -26.925781 6.542969 -26.289062 6.164062 -25.535156 L 6.179688 -25.417969 L -2.386719 -10.734375 C -2.691406 -10.34375 -2.925781 -9.84375 -3.210938 -9.277344 C -3.492188 -8.710938 -3.769531 -8.085938 -3.988281 -7.46875 C -4.535156 -5.691406 -4.539062 -4.277344 -4.054688 -3.214844 C -3.5625 -2.097656 -2.765625 -1.367188 -1.703125 -0.910156 C -0.703125 -0.445312 0.4375 -0.289062 1.714844 -0.449219 C 2.992188 -0.605469 4.109375 -1.097656 5.070312 -1.925781 C 5.980469 -2.683594 7.027344 -3.757812 8.261719 -5.207031 C 9.507812 -6.601562 10.625 -8.035156 11.734375 -9.589844 C 11.324219 -8.59375 11.03125 -7.613281 10.90625 -6.714844 C 10.679688 -5.683594 10.671875 -4.796875 10.824219 -4.050781 C 10.984375 -3.242188 11.410156 -2.648438 12.046875 -2.253906 Z M 12.046875 -2.253906 "/></g></g></g><g fill="#ffde59" fill-opacity="1"><g transform="translate(126.624276, 199.425439)"><g><path d="M 2.773438 -0.460938 C 4.210938 -0.285156 5.605469 -0.457031 7.015625 -0.984375 C 8.425781 -1.511719 9.8125 -2.214844 11.164062 -3.207031 C 12.464844 -4.136719 13.6875 -5.230469 14.894531 -6.441406 C 16.101562 -7.652344 17.234375 -8.96875 18.238281 -10.390625 C 19.191406 -11.75 20.082031 -13.15625 20.910156 -14.554688 C 21.683594 -15.949219 22.351562 -17.210938 22.90625 -18.460938 C 20.59375 -15.222656 18.402344 -12.890625 16.453125 -11.46875 C 14.507812 -10.050781 12.820312 -9.371094 11.457031 -9.4375 C 10.039062 -9.4375 9.128906 -10.152344 8.59375 -11.617188 C 8.0625 -13.027344 8.109375 -15.039062 8.738281 -17.59375 C 9.335938 -19.910156 10.09375 -21.890625 10.953125 -23.53125 C 11.820312 -25.113281 12.722656 -26.402344 13.652344 -27.460938 C 14.535156 -28.457031 15.390625 -29.152344 16.277344 -29.613281 C 17.164062 -30.078125 17.898438 -30.34375 18.53125 -30.480469 C 18.996094 -30.539062 19.417969 -30.472656 19.742188 -30.21875 C 20.011719 -29.957031 20.171875 -29.621094 20.167969 -29.152344 C 20.109375 -28.671875 19.949219 -28.0625 19.621094 -27.371094 C 19.292969 -26.683594 18.734375 -25.964844 18 -25.226562 C 17.738281 -24.957031 17.410156 -24.742188 17.089844 -24.464844 C 16.875 -24.320312 16.664062 -24.117188 16.445312 -23.972656 C 16.226562 -23.828125 16.074219 -23.632812 15.914062 -23.492188 C 15.550781 -23.09375 15.300781 -22.710938 15.171875 -22.339844 C 14.980469 -21.964844 15.089844 -21.5625 15.4375 -21.136719 L 15.328125 -21.0625 C 15.617188 -20.625 16.054688 -20.445312 16.757812 -20.472656 C 17.464844 -20.5 18.175781 -20.941406 19.011719 -21.8125 C 19.746094 -22.550781 20.335938 -23.507812 20.839844 -24.691406 C 21.347656 -25.816406 21.675781 -26.976562 21.882812 -28.183594 C 22.058594 -29.621094 21.964844 -30.847656 21.488281 -31.851562 C 21.011719 -32.851562 20.066406 -33.324219 18.714844 -33.277344 C 16.734375 -33.089844 14.808594 -32.441406 13.050781 -31.398438 C 11.292969 -30.355469 9.621094 -29.085938 8.152344 -27.609375 C 6.632812 -26.0625 5.300781 -24.425781 4.097656 -22.683594 C 2.90625 -20.882812 1.988281 -19.238281 1.230469 -17.730469 C 0.140625 -15.589844 -0.722656 -13.476562 -1.289062 -11.402344 C -1.917969 -9.316406 -2.101562 -7.46875 -1.84375 -5.847656 C -1.613281 -3.988281 -1.035156 -2.644531 -0.222656 -1.800781 C 0.589844 -0.957031 1.582031 -0.550781 2.773438 -0.460938 Z M 2.773438 -0.460938 "/></g></g></g><g fill="#ffde59" fill-opacity="1"><g transform="translate(147.421052, 196.856861)"><g><path d="M -0.488281 -13.035156 L -7.667969 0.476562 L 1.105469 -0.609375 L 7.460938 -12.660156 C 8.125 -9.203125 9.078125 -6.722656 10.273438 -5.160156 C 11.410156 -3.59375 12.761719 -2.695312 14.207031 -2.460938 C 15.597656 -2.164062 17.09375 -2.464844 18.636719 -3.363281 C 20.175781 -4.261719 21.738281 -5.457031 23.257812 -7 C 24.726562 -8.480469 26.109375 -10.183594 27.40625 -12.113281 C 28.699219 -14.042969 29.820312 -15.953125 30.710938 -17.832031 C 30.238281 -17.359375 29.824219 -16.894531 29.402344 -16.488281 C 28.988281 -16.023438 28.570312 -15.5625 28.214844 -15.105469 C 27.503906 -14.191406 26.722656 -13.328125 25.867188 -12.632812 C 25.015625 -11.878906 24.078125 -11.347656 23.046875 -11.105469 C 22.023438 -10.800781 20.714844 -10.875 19.242188 -11.34375 C 18.082031 -11.671875 17.015625 -12.1875 16.035156 -12.953125 C 15.0625 -13.65625 14.253906 -14.5 13.542969 -15.472656 C 14.066406 -15.539062 14.746094 -15.742188 15.53125 -16.074219 C 17.042969 -16.734375 18.816406 -17.660156 20.777344 -18.964844 C 21.710938 -19.550781 22.84375 -20.398438 24.246094 -21.457031 C 25.589844 -22.507812 26.746094 -23.652344 27.773438 -24.898438 C 28.746094 -26.082031 29.378906 -27.164062 29.730469 -28.148438 C 30.082031 -29.136719 30.097656 -29.964844 29.835938 -30.640625 C 29.515625 -31.308594 29.046875 -31.78125 28.296875 -32.101562 C 27.550781 -32.421875 26.652344 -32.546875 25.546875 -32.410156 C 24.441406 -32.273438 23.199219 -31.824219 21.753906 -31.117188 C 19.867188 -30.175781 18.128906 -28.957031 16.542969 -27.464844 C 14.957031 -25.972656 13.546875 -24.5 12.371094 -23.054688 L 12.320312 -22.992188 L 17.210938 -32.089844 C 17.582031 -32.429688 18.011719 -32.777344 18.492188 -33.191406 C 18.972656 -33.605469 19.507812 -34.023438 20.039062 -34.503906 C 20.519531 -34.914062 21.050781 -35.394531 21.582031 -35.871094 C 22.113281 -36.351562 22.699219 -36.835938 23.28125 -37.378906 C 24.394531 -38.402344 25.558594 -39.488281 26.714844 -40.636719 C 27.871094 -41.78125 28.902344 -42.96875 29.921875 -44.273438 C 30.886719 -45.515625 31.738281 -46.742188 32.527344 -48.019531 C 33.253906 -49.289062 33.757812 -50.46875 34.085938 -51.632812 C 34.363281 -52.726562 34.40625 -53.792969 34.234375 -54.71875 C 34.003906 -55.632812 33.488281 -56.453125 32.574219 -57.167969 C 31.9375 -57.558594 31.191406 -57.878906 30.347656 -58.011719 C 29.503906 -58.144531 28.570312 -58.085938 27.597656 -57.847656 C 26.570312 -57.546875 25.625 -57.074219 24.652344 -56.363281 C 23.679688 -55.65625 22.851562 -54.726562 22.109375 -53.574219 C 20.726562 -51.398438 19.34375 -49.222656 18.074219 -47.058594 C 16.808594 -44.898438 15.492188 -42.671875 14.238281 -40.390625 C 11.667969 -35.886719 9.164062 -31.332031 6.71875 -26.78125 C 4.28125 -22.175781 1.898438 -17.574219 -0.488281 -13.035156 Z M 18.191406 -35.628906 L 28.867188 -53.289062 C 29.15625 -53.796875 29.585938 -54.144531 30.039062 -54.316406 C 30.496094 -54.433594 30.851562 -54.417969 31.226562 -54.226562 C 31.488281 -54.023438 31.765625 -53.703125 31.9375 -53.253906 C 32.113281 -52.804688 32.125 -52.214844 32.039062 -51.496094 C 31.890625 -50.769531 31.527344 -49.898438 31.054688 -48.957031 C 30.585938 -47.957031 29.835938 -46.859375 28.863281 -45.679688 C 28.046875 -44.632812 27.109375 -43.632812 26.121094 -42.566406 C 25.074219 -41.496094 24.078125 -40.488281 23.074219 -39.535156 C 22.128906 -38.59375 21.21875 -37.832031 20.363281 -37.136719 C 19.503906 -36.441406 18.742188 -35.933594 18.191406 -35.628906 Z M 7.992188 -14.082031 L 10.433594 -18.6875 L 12.949219 -21.242188 C 13.421875 -21.710938 13.894531 -22.183594 14.417969 -22.71875 C 14.949219 -23.199219 15.421875 -23.667969 15.945312 -24.207031 C 16.945312 -25.15625 17.914062 -25.921875 18.84375 -26.511719 C 19.773438 -27.097656 20.507812 -27.363281 21 -27.191406 L 21.007812 -27.132812 C 21.8125 -26.816406 22.167969 -26.332031 22.007812 -25.722656 C 21.855469 -25.054688 21.359375 -24.285156 20.632812 -23.488281 C 19.855469 -22.625 18.902344 -21.738281 17.71875 -20.828125 C 16.539062 -19.855469 15.347656 -19 14.097656 -18.136719 C 12.796875 -17.210938 11.65625 -16.421875 10.566406 -15.695312 C 9.476562 -14.972656 8.597656 -14.449219 7.992188 -14.082031 Z M 7.992188 -14.082031 "/></g></g></g></svg>